<mxfile host="Electron" modified="2024-05-10T02:27:30.055Z" agent="Mozilla/5.0 (Windows NT 10.0; Win64; x64) AppleWebKit/537.36 (KHTML, like Gecko) draw.io/24.2.5 Chrome/120.0.6099.109 Electron/28.1.0 Safari/537.36" etag="D6q7rZ6H2gr9XpZ1M8xl" version="24.2.5" type="device">
  <diagram id="5uEmLCe5AZyo7dNHgoOY" name="Page-1">
    <mxGraphModel dx="2074" dy="823" grid="1" gridSize="10" guides="1" tooltips="1" connect="1" arrows="1" fold="1" page="1" pageScale="1" pageWidth="1100" pageHeight="850" math="0" shadow="0">
      <root>
        <mxCell id="0" />
        <mxCell id="1" parent="0" />
        <mxCell id="bVUHs7jFZVV0znrBEBwu-19" value="buildspec_powershell_windows" style="fillColor=none;strokeColor=#5A6C86;dashed=1;verticalAlign=top;fontStyle=0;fontColor=#5A6C86;rounded=1;" parent="1" vertex="1">
          <mxGeometry x="1135" y="50" width="270" height="150" as="geometry" />
        </mxCell>
        <mxCell id="bVUHs7jFZVV0znrBEBwu-39" style="edgeStyle=orthogonalEdgeStyle;rounded=0;orthogonalLoop=1;jettySize=auto;html=1;strokeWidth=2;dashed=1;dashPattern=1 2;entryX=0;entryY=0.5;entryDx=0;entryDy=0;" parent="1" source="bVUHs7jFZVV0znrBEBwu-37" edge="1" target="iBH5Nsfj8ljK5VvBtSij-1">
          <mxGeometry relative="1" as="geometry">
            <mxPoint x="795" y="309.5" as="targetPoint" />
          </mxGeometry>
        </mxCell>
        <mxCell id="bVUHs7jFZVV0znrBEBwu-37" value="PowerShell Module Project" style="fillColor=#dae8fc;strokeColor=#6c8ebf;dashed=0;verticalAlign=top;fontStyle=0;rounded=1;" parent="1" vertex="1">
          <mxGeometry x="530" y="210" width="175" height="200" as="geometry" />
        </mxCell>
        <mxCell id="bVUHs7jFZVV0znrBEBwu-23" value="buildspec_pwsh_windows" style="fillColor=none;strokeColor=#5A6C86;dashed=1;verticalAlign=top;fontStyle=0;fontColor=#5A6C86;rounded=1;" parent="1" vertex="1">
          <mxGeometry x="1135" y="220" width="270" height="150" as="geometry" />
        </mxCell>
        <mxCell id="bVUHs7jFZVV0znrBEBwu-38" style="edgeStyle=orthogonalEdgeStyle;rounded=0;orthogonalLoop=1;jettySize=auto;html=1;entryX=0;entryY=0.5;entryDx=0;entryDy=0;strokeWidth=2;" parent="1" source="bVUHs7jFZVV0znrBEBwu-2" target="bVUHs7jFZVV0znrBEBwu-37" edge="1">
          <mxGeometry relative="1" as="geometry">
            <mxPoint x="497.0000000000002" y="310" as="targetPoint" />
          </mxGeometry>
        </mxCell>
        <mxCell id="bVUHs7jFZVV0znrBEBwu-2" value="" style="shape=image;verticalLabelPosition=bottom;labelBackgroundColor=default;verticalAlign=top;aspect=fixed;imageAspect=0;image=data:image/png,iVBORw0KGgoAAAANSUhEUgAAAS4AAABuCAYAAACZb/6bAAAIAUlEQVR4nO3dv2obWRTH8V92t9h3mATsevoVLgJ2P6UaE/ALWKVBkGqrBYFL+QUMwo3L6S1IYbT9NNvYYIkt9iG8hZJs1o6csebeO+dcfT8wlR3p3D851kij37yR9CgAcOSnvgsAgNeicQFwh8YFwB0aFwB3aFwA3KFxAXCHxgXAHRoXAHdoXADcoXEBcOeXrf5VNdH8bLDhhwudH45Vp/yd11W/WcrnQnes1856oy2/q1iW5YafNGqa9L8TSsrnQnes127aunEBQF94jwuAOzQuAO7QuAC4Q+MC4M7Pkn7f+NNypMnZb/r17z/11z/pioou1LhynR9rWC888fIrrv13GgwOtJeomK1VE81mM402fTL+VKhxeZkf71gvPJHHqWJ9qVsVGp5UfVcCIIE8Gpca3dyupMFx+1ddANzKpHFJzfRKCxU6OKJzAbnLpnFJtS6vVyqGJ+KEEchbRo1Lam5utdJAx5wvAlnLqnGpmepqIRUHR6J1AfnKq3FJqi+vtSqG4gNGIF/ZNS41N1p/wDjiVReQqfwalxpN1+eL4gNGIE8ZNi5J9aWuV1yQCuQqz8bFBalA1rbLnA8lYmZ4M73SYnimg6NSU4sZvinz9lM+jrX7CLSR6/xYG1eb52qp38ZVj3V690JmeLcH1+WptL/f6UHiaTP2UPOT8nFSjiuUXOfH2rgCe9x4lOVjVVWP5Uu/4/EINa5c58fawXpxPDm4WQYAdzJ9cx5AzmhcANyhcQFwJ03mvLWs71zHlSvmOT8d1zRN5nzHxylH60z52WSkKsQFpX2Nq5poNpuEGcPzB9dkNtMk9BW3UWtuyXJWfF/z89r7LFjTcU19nCreP2i5lIrBUGcXXher1Oh4oGL5SXWUC5VqXd5Kg6CRPrFr9q7H+dnx+yy4aFxNPdV4/EGHp+daqNDwYuIv5bQ60bCQFp/iXRPeTK+0CBnpk6Bm13qdn/BfaytHM83nPl4YuGhcXzW1xucLSQO9d9W51n+ZtbrWZdQ9Xmt8eKhxkOdIVbNX/c9P6PssNPfLII+Tgq/GJUn1Jy0kDTx1rvJIB4W0uJqm/zrLtjzWnJKJ+dnd+yz4a1y608NK0ts9N0GB1clQhRbydMblseaUrMzPrt5nwWHjauToFa1UjrQ+o7hMm3jQhceaU7I0PyHvs3D3oMXiVvch6orMYePypTw6UKGFrqZ+Trg81pyStfkJdp+FZqrxeOriE2SHjavU3ltJy3sH771UOhkWNv4yt+ax5pQMzs8O3mfBYePa17tCWj3c9V3ID5WjYw200u2N/Rb7hceaU7I5P7t3nwV3jcvmxvmeUkfrj51k5IyiBY81p2R4fnbsPguuGldZTfRxaHTjPFWdaFisdO3pIiiPNadken526z4LLjLny9FEF8PPv7e61mmYKywj+u/ixE4vDJPmeCesOeW4gtVjf02j3WfB2pqq78bVNqf6/kGL6wd9urlRbfHGF99xf3Wu87u62wcIiXO8k9WcclwB67G/ppHus2BtTT+Ln9FtLes713HlejDP+R0d15TMeQDuuHpzHgAkGhcAh2hcANxJkzlvTa6Z89bqsabN/OzyHDoae5rM+b5sygM3kqX/P2Wl0WSm2WymybYXP3epx1qGeYx62sxPrnu+DUdjz/hU0U9eellNNL8403AgLZdL9fI1TGsZ5tbqccHPnu8q38blJS+9HOnj2fqK7NPDDxqPxz19ncnaV0as1eOAlz0fQKaNq/888LbW2U4rXf/Rf0Ry6AzzrqzVY5ufPR9Cno3LRB54G9bSBqxlmFurxzA3ez6MLBuXlTzwH7OXLWYtw9xaPVb52fNh5Ne4LOWBexQywzwEa/VYtIN7PrvGZS0P3KNgGeaBWKvHml3c85k1LoN54C0U70LnkHRkLcPcWj2m+NzzXWXVuPzEOn9h9R6R1jLMrdVjh789H0ZGjcvaJ3RtfL5WyeJpkLUMc2v1mOBxz4eRT+MynQe+2fpaJWlwZujrNpLsXQBqrR4DnO75EOxnzqfMA+9FrfGpNPl4puHFXEOttDj/oHGtxJnzzz3LMO85ezxapnpK7Pkg7GfOp8wD70tTa/yhVllVOnr/XvpyWVcPOd7/9yTDvPfs8UiZ6imx54OJlgtt9sg1c95aPdaONvOzy3PoaOxkzgNwJ5835wHsDBoXAHdoXADcSZM5by3LOtdxhZLruHK1g/s5Tea8tSzr2OOylt/+WtbW61vfZqqnnGfLa5rr/9MXcKoYA3npkTzJVE85z6ypKTSuKPh6ShTPMtVTzjNragmNKxLy0kP7fqZ6ynlmTe2gcUVDXnpQGzPVU84za2oFjSsi8tLDeSlTPeU8s6Y20LhiIi89jB9lqqecZ9bUBBpXZOSld9cmUz3lPLOm/aNxxUZeekctM9VTzjNr2jsaV3TkpXfRPlM95Tyzpn2jcaWQKC+9HM00nxu9unsrr8xUT5lLTwZ+r2hcSaS8eHGp+1wiMV+dqc4Fqbtiu+jmnrPQo0mZlx4hv33/XSGtbr8mP38Valyhao6YqZ4yJz/ac6VcrzaPY9B2jav3LPRIUualB89vL7X3VtLy/nmdocYVquaomeopc/IjPVfK9XIsfga1tSzrLMdVPU7m88fZqLQzPxxpjiz388sHmfMA3OHNeQDu0LgAuEPjAuAOjQuAOzQuAO7QuAC4Q+MC4A6NC4A7NC4A7tC4ALhD4wLgDo0LgDs0LgDu0LgAuEPjAuDOvzfSt866CqPsAAAAAElFTkSuQmCC;" parent="1" vertex="1">
          <mxGeometry x="156.88" y="275" width="192.18" height="70" as="geometry" />
        </mxCell>
        <mxCell id="bVUHs7jFZVV0znrBEBwu-45" style="edgeStyle=orthogonalEdgeStyle;rounded=0;orthogonalLoop=1;jettySize=auto;html=1;endArrow=classic;endFill=1;strokeWidth=1;fillColor=#0050ef;strokeColor=#001DBC;curved=1;exitX=0.5;exitY=0;exitDx=0;exitDy=0;" parent="1" source="iBH5Nsfj8ljK5VvBtSij-1" target="bVUHs7jFZVV0znrBEBwu-11" edge="1">
          <mxGeometry relative="1" as="geometry">
            <Array as="points">
              <mxPoint x="836" y="110" />
            </Array>
            <mxPoint x="835" y="272.25" as="sourcePoint" />
          </mxGeometry>
        </mxCell>
        <mxCell id="bVUHs7jFZVV0znrBEBwu-46" style="edgeStyle=orthogonalEdgeStyle;curved=1;rounded=0;orthogonalLoop=1;jettySize=auto;html=1;endArrow=classic;endFill=1;strokeWidth=1;fillColor=#0050ef;strokeColor=#001DBC;exitX=1;exitY=0.5;exitDx=0;exitDy=0;" parent="1" source="iBH5Nsfj8ljK5VvBtSij-1" target="bVUHs7jFZVV0znrBEBwu-20" edge="1">
          <mxGeometry relative="1" as="geometry">
            <mxPoint x="870" y="308.625" as="sourcePoint" />
          </mxGeometry>
        </mxCell>
        <mxCell id="bVUHs7jFZVV0znrBEBwu-47" style="edgeStyle=orthogonalEdgeStyle;curved=1;rounded=0;orthogonalLoop=1;jettySize=auto;html=1;endArrow=classic;endFill=1;strokeWidth=1;fillColor=#0050ef;strokeColor=#001DBC;exitX=0.5;exitY=1;exitDx=0;exitDy=0;" parent="1" source="iBH5Nsfj8ljK5VvBtSij-1" target="bVUHs7jFZVV0znrBEBwu-26" edge="1">
          <mxGeometry relative="1" as="geometry">
            <Array as="points">
              <mxPoint x="836" y="470" />
            </Array>
            <mxPoint x="835" y="345" as="sourcePoint" />
          </mxGeometry>
        </mxCell>
        <mxCell id="bVUHs7jFZVV0znrBEBwu-4" value="" style="sketch=0;pointerEvents=1;shadow=0;dashed=0;html=1;strokeColor=none;fillColor=#505050;labelPosition=center;verticalLabelPosition=bottom;verticalAlign=top;outlineConnect=0;align=center;shape=mxgraph.office.concepts.powershell;" parent="1" vertex="1">
          <mxGeometry x="633" y="245" width="45" height="45" as="geometry" />
        </mxCell>
        <mxCell id="bVUHs7jFZVV0znrBEBwu-6" value="" style="sketch=0;aspect=fixed;pointerEvents=1;shadow=0;dashed=0;html=1;strokeColor=none;labelPosition=center;verticalLabelPosition=bottom;verticalAlign=top;align=center;fillColor=#00188D;shape=mxgraph.azure.script_file" parent="1" vertex="1">
          <mxGeometry x="631" y="314" width="47" height="50" as="geometry" />
        </mxCell>
        <mxCell id="bVUHs7jFZVV0znrBEBwu-7" value="" style="aspect=fixed;html=1;points=[];align=center;image;fontSize=12;image=img/lib/azure2/general/Folder_Blank.svg;" parent="1" vertex="1">
          <mxGeometry x="563" y="240" width="61.61" height="50" as="geometry" />
        </mxCell>
        <mxCell id="bVUHs7jFZVV0znrBEBwu-11" value="AWS CodeBuild" style="sketch=0;outlineConnect=0;fontColor=#232F3E;gradientColor=none;strokeColor=#ffffff;fillColor=#232F3E;dashed=0;verticalLabelPosition=middle;verticalAlign=bottom;align=center;html=1;whiteSpace=wrap;fontSize=10;fontStyle=1;spacing=3;shape=mxgraph.aws4.productIcon;prIcon=mxgraph.aws4.codebuild;" parent="1" vertex="1">
          <mxGeometry x="1155" y="84" width="80" height="110" as="geometry" />
        </mxCell>
        <mxCell id="bVUHs7jFZVV0znrBEBwu-42" style="edgeStyle=orthogonalEdgeStyle;rounded=0;orthogonalLoop=1;jettySize=auto;html=1;dashed=1;strokeWidth=2;dashPattern=1 1;endArrow=none;endFill=0;fillColor=#60a917;strokeColor=#2D7600;entryX=0.001;entryY=0.733;entryDx=0;entryDy=0;entryPerimeter=0;" parent="1" source="bVUHs7jFZVV0znrBEBwu-12" target="bVUHs7jFZVV0znrBEBwu-24" edge="1">
          <mxGeometry relative="1" as="geometry">
            <Array as="points">
              <mxPoint x="1055" y="500" />
            </Array>
          </mxGeometry>
        </mxCell>
        <mxCell id="bVUHs7jFZVV0znrBEBwu-43" style="edgeStyle=orthogonalEdgeStyle;rounded=0;orthogonalLoop=1;jettySize=auto;html=1;dashed=1;dashPattern=1 1;endArrow=none;endFill=0;strokeWidth=2;fillColor=#60a917;strokeColor=#2D7600;entryX=0;entryY=0.75;entryDx=0;entryDy=0;" parent="1" source="bVUHs7jFZVV0znrBEBwu-12" target="bVUHs7jFZVV0znrBEBwu-23" edge="1">
          <mxGeometry relative="1" as="geometry">
            <Array as="points">
              <mxPoint x="1055" y="333" />
              <mxPoint x="1135" y="333" />
            </Array>
          </mxGeometry>
        </mxCell>
        <mxCell id="bVUHs7jFZVV0znrBEBwu-44" style="edgeStyle=orthogonalEdgeStyle;rounded=0;orthogonalLoop=1;jettySize=auto;html=1;dashed=1;dashPattern=1 1;endArrow=none;endFill=0;strokeWidth=2;fillColor=#60a917;strokeColor=#2D7600;" parent="1" source="bVUHs7jFZVV0znrBEBwu-12" edge="1">
          <mxGeometry relative="1" as="geometry">
            <mxPoint x="1136" y="140" as="targetPoint" />
            <Array as="points">
              <mxPoint x="1055" y="140" />
              <mxPoint x="1136" y="140" />
            </Array>
          </mxGeometry>
        </mxCell>
        <mxCell id="bVUHs7jFZVV0znrBEBwu-12" value="AWS CloudFormation" style="sketch=0;outlineConnect=0;fontColor=#232F3E;gradientColor=none;strokeColor=#ffffff;fillColor=#232F3E;dashed=0;verticalLabelPosition=middle;verticalAlign=bottom;align=center;html=1;whiteSpace=wrap;fontSize=10;fontStyle=1;spacing=3;shape=mxgraph.aws4.productIcon;prIcon=mxgraph.aws4.cloudformation;" parent="1" vertex="1">
          <mxGeometry x="1015" y="610" width="80" height="110" as="geometry" />
        </mxCell>
        <mxCell id="bVUHs7jFZVV0znrBEBwu-13" value="" style="shape=image;verticalLabelPosition=bottom;labelBackgroundColor=#ffffff;verticalAlign=top;aspect=fixed;imageAspect=0;image=https://upload.wikimedia.org/wikipedia/commons/thumb/5/5f/Windows_logo_-_2012.svg/2048px-Windows_logo_-_2012.svg.png;" parent="1" vertex="1">
          <mxGeometry x="1244" y="90" width="70.09" height="70.09" as="geometry" />
        </mxCell>
        <mxCell id="bVUHs7jFZVV0znrBEBwu-50" style="edgeStyle=orthogonalEdgeStyle;rounded=0;orthogonalLoop=1;jettySize=auto;html=1;dashed=1;endArrow=none;endFill=0;strokeWidth=2;fillColor=#f8cecc;strokeColor=#b85450;" parent="1" source="bVUHs7jFZVV0znrBEBwu-14" target="bVUHs7jFZVV0znrBEBwu-32" edge="1">
          <mxGeometry relative="1" as="geometry" />
        </mxCell>
        <mxCell id="bVUHs7jFZVV0znrBEBwu-14" value="" style="sketch=0;pointerEvents=1;shadow=0;dashed=0;html=1;strokeColor=none;fillColor=#505050;labelPosition=center;verticalLabelPosition=bottom;verticalAlign=top;outlineConnect=0;align=center;shape=mxgraph.office.concepts.powershell;" parent="1" vertex="1">
          <mxGeometry x="1322" y="259.95" width="72.62" height="70.09" as="geometry" />
        </mxCell>
        <mxCell id="bVUHs7jFZVV0znrBEBwu-48" style="rounded=0;orthogonalLoop=1;jettySize=auto;html=1;endArrow=none;endFill=0;strokeWidth=2;edgeStyle=orthogonalEdgeStyle;dashed=1;fillColor=#f8cecc;strokeColor=#b85450;" parent="1" source="bVUHs7jFZVV0znrBEBwu-15" target="bVUHs7jFZVV0znrBEBwu-32" edge="1">
          <mxGeometry relative="1" as="geometry" />
        </mxCell>
        <mxCell id="bVUHs7jFZVV0znrBEBwu-15" value="" style="sketch=0;aspect=fixed;pointerEvents=1;shadow=0;dashed=0;html=1;strokeColor=none;labelPosition=center;verticalLabelPosition=bottom;verticalAlign=top;align=center;fillColor=#00188D;shape=mxgraph.azure.powershell_file" parent="1" vertex="1">
          <mxGeometry x="1322" y="90" width="65.75" height="69.95" as="geometry" />
        </mxCell>
        <mxCell id="bVUHs7jFZVV0znrBEBwu-20" value="AWS CodeBuild" style="sketch=0;outlineConnect=0;fontColor=#232F3E;gradientColor=none;strokeColor=#ffffff;fillColor=#232F3E;dashed=0;verticalLabelPosition=middle;verticalAlign=bottom;align=center;html=1;whiteSpace=wrap;fontSize=10;fontStyle=1;spacing=3;shape=mxgraph.aws4.productIcon;prIcon=mxgraph.aws4.codebuild;" parent="1" vertex="1">
          <mxGeometry x="1155" y="254" width="80" height="110" as="geometry" />
        </mxCell>
        <mxCell id="bVUHs7jFZVV0znrBEBwu-21" value="" style="shape=image;verticalLabelPosition=bottom;labelBackgroundColor=#ffffff;verticalAlign=top;aspect=fixed;imageAspect=0;image=https://upload.wikimedia.org/wikipedia/commons/thumb/5/5f/Windows_logo_-_2012.svg/2048px-Windows_logo_-_2012.svg.png;" parent="1" vertex="1">
          <mxGeometry x="1244" y="260" width="70.09" height="70.09" as="geometry" />
        </mxCell>
        <mxCell id="bVUHs7jFZVV0znrBEBwu-24" value="buildspec_pwsh_linux" style="fillColor=none;strokeColor=#5A6C86;dashed=1;verticalAlign=top;fontStyle=0;fontColor=#5A6C86;rounded=1;" parent="1" vertex="1">
          <mxGeometry x="1135" y="390" width="270" height="150" as="geometry" />
        </mxCell>
        <mxCell id="bVUHs7jFZVV0znrBEBwu-51" style="edgeStyle=orthogonalEdgeStyle;rounded=0;orthogonalLoop=1;jettySize=auto;html=1;dashed=1;endArrow=none;endFill=0;strokeWidth=2;fillColor=#f8cecc;strokeColor=#b85450;" parent="1" source="bVUHs7jFZVV0znrBEBwu-25" target="bVUHs7jFZVV0znrBEBwu-32" edge="1">
          <mxGeometry relative="1" as="geometry" />
        </mxCell>
        <mxCell id="bVUHs7jFZVV0znrBEBwu-25" value="" style="sketch=0;pointerEvents=1;shadow=0;dashed=0;html=1;strokeColor=none;fillColor=#505050;labelPosition=center;verticalLabelPosition=bottom;verticalAlign=top;outlineConnect=0;align=center;shape=mxgraph.office.concepts.powershell;" parent="1" vertex="1">
          <mxGeometry x="1322" y="429.95000000000005" width="72.62" height="70.09" as="geometry" />
        </mxCell>
        <mxCell id="bVUHs7jFZVV0znrBEBwu-26" value="AWS CodeBuild" style="sketch=0;outlineConnect=0;fontColor=#232F3E;gradientColor=none;strokeColor=#ffffff;fillColor=#232F3E;dashed=0;verticalLabelPosition=middle;verticalAlign=bottom;align=center;html=1;whiteSpace=wrap;fontSize=10;fontStyle=1;spacing=3;shape=mxgraph.aws4.productIcon;prIcon=mxgraph.aws4.codebuild;" parent="1" vertex="1">
          <mxGeometry x="1155" y="424" width="80" height="110" as="geometry" />
        </mxCell>
        <mxCell id="bVUHs7jFZVV0znrBEBwu-28" value="" style="shape=image;verticalLabelPosition=bottom;labelBackgroundColor=#ffffff;verticalAlign=top;aspect=fixed;imageAspect=0;image=https://upload.wikimedia.org/wikipedia/commons/thumb/3/35/Tux.svg/1200px-Tux.svg.png;" parent="1" vertex="1">
          <mxGeometry x="1248.02" y="428" width="62.05" height="74" as="geometry" />
        </mxCell>
        <mxCell id="bVUHs7jFZVV0znrBEBwu-35" style="edgeStyle=orthogonalEdgeStyle;rounded=0;orthogonalLoop=1;jettySize=auto;html=1;entryX=0.5;entryY=0;entryDx=0;entryDy=0;strokeWidth=2;" parent="1" target="bVUHs7jFZVV0znrBEBwu-2" edge="1">
          <mxGeometry relative="1" as="geometry">
            <mxPoint x="252.88999999999987" y="199.16000000000008" as="targetPoint" />
            <mxPoint x="253" y="156" as="sourcePoint" />
            <Array as="points" />
          </mxGeometry>
        </mxCell>
        <mxCell id="bVUHs7jFZVV0znrBEBwu-29" value="" style="shape=image;verticalLabelPosition=bottom;labelBackgroundColor=default;verticalAlign=top;aspect=fixed;imageAspect=0;image=data:image/png,iVBORw0KGgoAAAANSUhEUgAAAbgAAAC6CAYAAADcdVgMAAAAAXNSR0IArs4c6QAAAARnQU1BAACxjwv8YQUAAAAJcEhZcwAALiIAAC4iAari3ZIAAERZSURBVHhe7Z0HYFTF9vDP3N0k9F6lSVGfdIgiIhqxUWyAYHso+uwIKk1R/0/ke88OKhYU7AUbKAiKAX1gBKnSmyJFkBYIPUBIdud8Z8puNqTsJtkku8n5JffOOWfmzp079+6cO7cNMAzDMAzDMAzDMAzDMAzDMAzDMAzDMAzDMAzDMAzDMAzDMAzDMAzDMAzDMAzDMAzDMAzDMAzDMAzDMAzDMAzDMAzDMAzDMAzDMAzDMAzDMAzDMAVC2JAJoEPfN5qgkP9EgV0BoRGABAp3gvQuAHRNXv3t0L9sUoZhGCZCYQcXQOd+48qnibhnEeRggeBWXg0RKYYmHUile8k6IdaTOmr5d2NO6AUZhmGYiIMdnCW+/8SqXshIpArpTA6MnJlxbNkcnEqs7BKXemOcnhumDj+oTQzDMExEwQ5OMXq002FDnZlUG72UYwvFwZl08hTNfqE0iRK8iRtmPLGRqtQkYRiGYUoUdnBE+34TbhUOTtZKvhycCX1pJcqdAvEHFCLR7aTPXf3tmMM6OcMwDFPslHkHd37/N+plCGeuADxXGwIdl5JsqP6DObgsy0n0kryQOnSJDojZa8/zroQxY6RenGEYhilyyqyDi793Yow8KgeTLxpNalXlvDSBjks7KrkGyfsJhHb5cXBG9PkzikHcR7PZaoqFuDmrEp/cbyMZhmGYIqBMOrgON719uQAxnnpXrYwvUrPsDg7RO27110NHKHO7Pi8/S8bHKUYlypKOlt1IDkw5rM6kxJp4FZXFwenQppcUrEAhE11eTCx38MDS5csnZZi0DMMwTDgoUw4u/raJjSHDNZYcS3/la+z7bcr9KKej0/gcFzkkT6xwGi2bMnivMrftM6EOwMndJLrMQiadDlFuXzcjrdk511WoGAPyCpSeHpTuKoo4Uy2r0md1cHZZHaV6hXiEbD8KFImOcOasn/PM3yaSYRiGKShlwsElDPygXKpHDkeJTwjACtq5aP+Su4OjcN6qqQ9dZoyGtn3GzabgKrOQP52Rpeyy7rsnFpmUGtH6mtHnSOnqSevpQWkuptou70+vllUYB0ehkVUkQT1CmEX22emeigu2J41J02kZhmGYkCn1Du68W96/Vjr4ikBorr2Iz7lo/5JnD+7+1VMfmmiMhra9x/4LhHjPLGTSqdBOr62d+fjDNmk2GvYbWr7y8UqXCkTq3YnutOw5OiKbg1OizVNJUp6gcC5ps6UXErckvbJZJ2IYhmHypNQ6uAtuef8sryNeJbGXdhTWYSjHgSDTafYGyXeSsbpxKJkOTqLMiPWI+sumDzlgjIY2t06oLk6c3AsCY00+Jj8to9y9ruOpRqE+KXn2lU82dQnoQUt3J0fbjUxVcnJwJm8rq7mUW1BgIvnmxFjw/LwhaUKqjmAYhmGyUOocXMv+X1WqWO7kE+RwhtPmaUeknIPPSaDEOY5LPITSW5ts87UP0bNAB4eJq6cO6WkMWWnTZ+wMqrRrtePRy9mJZCmg2/pvH//ZpAyd+PiJMam1tl5EGfSgclAPD9uQ2VF56vXY/BX+B1f0euUpChYohycRZm/7pdZ6AH4VgWEYRlGKHByK826bfCOAd6wA0TCLI1DOB3GbQBy2/PO7pytzx5snvU49J/WaAP1rZ6HMOr0EeefqKQ99aAxZadN33K2Uz2SVLpuDA5y4fsYT95uUBadlwoh63lhQ9+1ogsvJwdVS+SuyOjhbBjUpmXqRFPzgACameTxzdy5+jz8jxjBMmaVUOLiOd3zaxuWF12hrLvU5Kp8joPCkQHihYox4IemjO/XDGgkJ89zH6m3aBQLraN+gZza9lGkucbze8imjjmjDaZxz3QuVY13OXsrTPqxiJ5LJie6vdfTUGUlJYzwmdRgYPdpp8fPRTsKBHgKwOzm782k7Xb71ZnFwNtSy/ii0XELLJKJ0Erc1PLwCpkzxmkwZhmFKP1Ht4NoN/KBaHMQ9Tc35g9SrcqumPquDw2muDBi25Ms7swxv0+Gmdy8XQv6U80Mm8tuVU4b0NkrOtO394hSqun6BDsXkopwc9Nww84lEkzL8tLxqaI2MU96rUGB3Wm93MtVX61ZlyF4eFfgddwpZ5tA2JwrpnrNtyXvJOoJhGKaUEp0ObjQ6nbZ/fge1488JEHWMowpo0BF/9yI+vGLyHdSgZ6fDzW+/I8C5O0cHJ+UtK6cO+cIoOdP2+hdvACGmZncoFEr8aN13T95hUhY54qxug9tSX03fu5OAF9IOjcvJwen6sXbl7UhcpZ0duhLLpx5fsmHDlHSTkGEYpnQQdQ6u8+1fdpIOvk4F72QcjLIaB0fzo4De/2L5tFeXT7ovxy+DtOz/VWw512H18nb1bA4O4bg3rnLdNZ/eftykzpn4a0ZXyHBVTEYBlbQzsY5D/0k8fMpTqd7mxIdPmdTFR8uEQZVOSe/lVIwe5MzU+3rNVLk0VEa/g1Pl9MnqX8qj1CP8iZzzbMcLs/9a+dl2tQjDMEw0EzUOruudX9bOEM6z1Aj/CwQ6usG2DTQ5NdVif+aRMHLF5Nv2mCVyJv6Wd3pR4u/1cqc5OHKRX636ashNOmEQ2lz/0idUjgGqHHrSuVgZvX3WffeUfpilJGl2yX1ngVf2QvSqL6tcQsWroMqpyxrg4My2K0HL9Id/0IExi4TZGOudv3Px1JMmkmEYJnqIeAenHgg51eLA/dQg/4fUaj5nokLdKEtcJRCHLPnknwv0AkHoeMs7H9PCt5n2PKuDE1L2XTF1yDSdMAhte79wDYKYaRyaysyWx+hfrPvu/24xKSODFj2GxHmOHLuUxO5C9fD06AmqrGTJ6uCM5NsuxJMU97MEmYgeb+LuNdM36XQMwzARTkQ7uAv/Nf0SBO/rVMq2qrH1OxAlSXlQCPHvxsediVOm3BjS04Gd+40rn+6uol7UrmJa8UwHhyiPpB711A310mKLHuPjypVLU09T+p2uv3yIqXGQUXf5d2NOmNSRx5kX3toEZEx3qkjl7C6jQlfVEac7uKzbpeRt1LNLdBxIPFHeO+/AwhnHVHKGYZhIIyIdXOf7ZjYAj+clckQ3U6NqymgaVwqkGmftPfTGPrHsk75ZvjQSjA63vtPXQfha5aP+s/TgJH68csqggTphiLTp/cK7tOhdqmwmF5WZlRFvXv/dv7/UCSOc+Ph7Yw44qRdSH7aHAKleRWhPZn0ZOMt2aV0FVG8mTKfpV6rTRDrhmL1r/Xlr+UVzhmEihYhycD2GzIo7cjLjEWpQ/08AVlI2X2OqGldqeBeRIxqy5KMblxtj/oi/9d0vKZMbTYOtLIE9OO/Vq74aPEsnDJHW1z5/pXDEHFU2m4sup5YRp5GD66sTRhnNLhxQJyM9vQeg6EEnGVfQ9tTW23Wag/Nf2tRmvc17UL+GgLPBG/fT7t+n5+sEhGEYJpxEjIO76J4ZPaWAV6mVPFu3mFkb073kgB5f8n7/j6jIJiKfqE94lXMfTc5pNAGJMqVqcnL9/L6gnZAw2n2gavndVIm1VUYmX5UxSRJPelyxdf+Y8ViUX8Ib7TQ8b2M8SE9P2qzuNHWi7XPrqNMcnNr2zDpQryLgUuqAJ9K+S0xuXe03ftGcYZjipMQdXNcHvmvm9cpXBIjrVCNJjSJZbSOJmCER3sCK5Z5e+nqvo2aJghF/83u3gIOfZTbCyurrwcl3Vn456F6dMJ+0vu75N6kSB6lcMht3kz8554Hrv3/qY5OydNCk3fXVPMK5ksQe5MO60/lGA7WtdoNpbsLTddqvB0lQvd1ED6TPSfl9fp5PuzIMwxSWEnNw8ffOqBAn3KPIyYwktZyvUfQ5OJRyrkt4H/r13f7rVfrC0vGW96YLgdfrxlY3uspqHBwIefmKLwbNVZb80ua65y6hDJJ0mXW+pvxGlD+Qg+tlUpZKRMM217emflwPqkv1KsJFtNX+F80z61rpymJl9SICwGqaJQrwzq7pqrOQXzRnGCbclICDQ9Hl/tl9BcpxtPYmWRtBkqTcQcLwRe/2nqqThwE1zE0sxO2l/AOGuVEx1DQj7mkhazYK9UnMbIwe7bReWW47VWTDwO0wokzHDG/9DXPGlImPHtdte2VFF8RdhlK/d9ddIDajOhGmTlSV2Prx7wNlV6FMpZ76T+q7mULAnORN87fpBRiGYQpBsTq4rvfNaonCGU9rvSKzcTONHTmDNFLGpYN4dvmk68L6eH3HWz+4Q4D8IHB96l/34KR8Y8VXg4bohAWk9bXPv0y9w6EmX5WxyV/dP6Tgvg3fPzXJpCxbNGrVo7kHperBqnt3CSjQ/+WXrHWVRSdR/knzH2jnJLpPZPyyZ8/yiH3dgmGYyKVYHFynIbOqxHpcT1HL9TCt0H4UOUvjNhNk+tCF7/TdoqLCTfw/30uklXQPWJ8WlYMTErsu/+qBX3XCAtKu9/OdpMQlJl+VsclfOTiaz13//ejLdcIyTMuW/WNT8OAltP97UJ33oH5dS6ogUk2dZa07rVGoH2JJA4lJoMa884rZB7cv2aiiGIZhglG0Dm70aOeifV0HCAdfoJaqnraZXo1txPBPmj2ycGKvfD2enx/a3/lebVe62E3rc2c2nipU/3LHys/vOxOo+2WTFxAUra97npwzNs1spOnfbKsH0Ntow6wx6vuXjKVBi4SGGY6rhwB1ORMvp3o67Ss1SlQnCCr07TMdblcvmqvLmdIF8w5tXZ7jsEYMwzCODcPOxQ/+1LFrysXzHUeoR/uNc7MgYiq1VE9UiYE2RencFK5TeIPqNVo1KwhTCu/cFEJ1RXIcgcCsW/S3KmPZtTlp575Nc99N3pTUL7m+qI3gvZhOCJ6hqN9oyvV+KNVnEyHgPhKmOR7cX6Nx+6SajdqPqtqkbQeKLrLjmWGY6CPsPbjLH1xS85Rz/L8g8V5qiAI+iqwnQn6V4cERS9/ttdMuUqTE3/r+z1SOBFoxaf5egBbBEeet+OyeAr00fjqtrn6unXDhKr2dNn9ziVKJ8tcN3z/dVStMUOq16FpbguwuzXh3VwrEuv5jiMLMfanr1tpVIJPJkEjS7AyP66fUvav26wiGYcok+XJw3Yb/2gSlowb6bCSkdJnm215GkhSqkaYl3kRhjewORbdGq+jkfIHU7ZGe6eV0I2UUmx3F6ZCaORWouU5uNF+8L9YoNj8TofOkbpVD9vuVo82hPOk0m6TWr3MJXF6hnZNvDRRnEhlNbauR9L/PLlHeRxUa47P7HJwSaP1vI1WaridjM6FvHf48qdxazIy3CbSmljNSoN1noWV8Nn+cCbPUuY3317ted0B5tBgYpzB5G03NfQrZA9KfnqfWArbNBCbU5c1xXb46UZH6KcyO1EnuRGldaoHcHFzg5W+l0N9vKPA30imR+VdLKPQatK5mWlD5qgySab3TUw/u2KCNDMNELSE7uIRhS+4WKN8kMVY3EtSImMZENQ5KV/8kG6NqLKzd71BUBIVZGqHT4rMupwhwElnSZeoqUq1XaxT6GqvM5VSi7OVRkaa8Rs95PYGNqb/sNt6fzpfWp+tQiTZPFeO3m0mn1VEqT2UzsjZpXRt06F9WzQPKqeO0PUC2dmVT8yzbZe06zifrwJZBoWUVqjgdaeL8ugp8eQaU3abxp82mK4uV80zn05UYUPaA+MCy5+HgdBi4nPlX6XWigHxOT0euEeTTqSk71QgWDMNEKXRGHJxuw5Z2oR/9NyBEDveyVKPgI1DOjVDSBJLfPH1yQZfLi1DSBFLay5DfsuSXoix7nqgTv26x5aqtTz95hHtyDBOlhHhTHocIIfgGPlOmQCGHWpFhmCgkJKeFAttYkWHKEq1syDBMFBKSgxMgQrqUyTClCgz1CgfDMJFIiD9gsd0KDFOW2GVDhmGikJAcnJTeT63IMGUGAeITKzIME4WE5OCSXu48GQDZyTFlCPwp9WDlsVZhGCYKyceL3iguHbboVpBiAAhsiFJa54j073uPiib9mpGyKd28c6TfTtK6wvf+kX3HSZ7+DpL6D3i3yeahZjqwLxCreJOviVO6Xs5nQ2xAW1fVl6//nSf1+i/g7z67wrzX5Y83JdPxat0qX5J1UhX61mN1qeoQz1WySacSqlCJmens+o+QbZd/m3WUktR6tKJ1o5h4nQelz9StbPPOrFubpxJtHSnRn59ejxJNnH9SgS6PyU/Fa0kvpwUS7TLWpmpQ69pGcdpsdFM+hW85wqb37y+dJuCYUYHSrN2Ux9h0Wn+etExA/squ8/S/IG7zoEkIOJdCQWVIJ8tmna9eVKVXc6/RBVaj8Ay9Rol7Sd9A0tTU/dvVCBA8AjnDRDH5cHDRRfyADz+mjbtNNXaqJct0DHBk+ed3V9OJwkCb6597mnz/aL0Onb9/PSRmbXjpb/LGWWMGWCNTZCS4qzdMSaMKd9E+2Hx498azbEQ2qtZpfi/tl4l634Ecdmzf9ldMDMMw0Q4/JVYI2lz3wnV0jvCUVRmGYZgIIuw9uIPwfFUPuHsJEK3ojLiSNYcFKuwpAc5mhIwfasGoPD/WXNQ9OHJu51CBlpJYxb8Onb9/PSRyD65k4B4cwzBhdHDUQIgDMPYRynIMqZWNtWigpshDjdHbJ8H1aGMYftKas1CUDu6c616oHCecJShQ3eehPO06dP7+9ZDIDq5kYAfHMEwYL1GSc3uTnNvLJBapc1OQ43JTT25wBcAfJIyPs+ZiAkWsy/UhFeJca2AYhmEikLA4OHJuN5HbecCqxUnCQcgo1i++t+398ihysH2tmhNbqLeWY6+SYRiGKT7C4uAkQIk9aIGAgw/BK2F7KjIv2vYZ14OC/xotO+TYjlOgnF+6NjAMwzAlRqEd3CF4qSn1aFpatdgRIMp7wXOFVYuMVr3HN6ft/IxWmFudIcXdvW7mk2uszjAMw5QghXZwHnDOtGKJQZ6lSMvQdsBLFd3C+w2J1Y0lJ/Dl9TOe/MIqDMMwTAlTaAfnBcxhENRiJyyXWnNDnHC/C0K0tWo2EGDuP+JaPGZVhmEYJgIoUsdQGmjb99XhIOBmq+YAbo+T7pumTLmRP+vEMAwTQbCDy4MON7x6uQB4warZUU9LOqLv8u9GpFgLwzAMEyGwg8uFDn3faCJBfEG9t9wGe0WB4v610x5bYXWGYRgmgmAHlwOd+40rj473GyGgljVlAwHeWDPj0Y+tyjAMw0QY7OBy4KSIfRtAdLRqdhDn1ziUOsxqDMMwTATCDu40OvR7Y7AAuN2q2UHYKb0x/ZOSxnishWEYholA2MEF0PGmCRcjoPqeZm6kgZT91s18JNnqTDQQHx9TvcG5varWP/utqvXPWVWl3lnTq9RrMahC7Sb1bAqGYUoh7OAsbfqMb4gSpwghYqwpGxLEkDUzRi6xKhMFoIB6Vfec+AsRvxfg3E+WdgLE9TS96Xbcf9MJzVCblGGYUgY7OKLJwNHlXG73VBBQ15qygQiT1k4b9q5VmSiBHFklAXCGVU9DuEGIf1iFYZhSBjs4osbJuq8JARdYNQdwkcfdYIhVmAineqOUG8h55fvYRhRXArSMtSrDMFFOmXdwHW96+146i7/HqtlB2OvExPTbMOVGHiEgCqjaoF03QPEpidRxyx+0QM9KtVInWpVhmCinTDu4Dre8fSF5sNetmh2EdJTQf+UXQ3ZbCxPB1K3btqJw8CN96bGACCHuqFSnSR+rMgwTxZRZB9exz9v1hYSp1KTlfklK4NA10x9ZYDUmwsmIxXuoF9bIqgVGSPx/KjAawzDRSqEdnAuwxD8yTBshrRgSLft/FYuxzlfUhOXy8IECP1w19ZEJVmGiAARxvRULS+uqdRo3tTLDMFFKoR2cBGeHFUuSv20YFEQUce4jLwsBXa0pGwj426GKBx+wKhM91LdhofFi+PJiGKZkKLSDqwvDN5ND2GzVEgBPxQD8zypBIcdWWQA+aNUcwH1ukDds/2hMmjUwUYJA2GfFQiPQG7a8GIYpGcJyD06AeMaKxQ6CeKcK5Gu4mlzvrZCj9gjh3Lx8yiOR0Ctl8gntv3DdL917LGXXFiszDBOlhMXB1YQRH0nAyVYtTn7zAI6ycqGhHsCjK756cJ5VmWhDOOoYRKMUHBTwOQX5uq/LMEzkEaYeHGBtaDKQQvX0WZFf2qMWTJJD/RQg5vL6MPK4NReWz1ZOGfyKlZko5NDfq9cD4ndWLRiIaTEe96tWYxgmign7o9DJ8GI9B0RfAaIVqbl+17EgkFOTLnC2SPDMqA2P/WHNORI/4MOPaeNuU9/YUi4Rbah09af+9Um6FnGVc9y5aPl3951Q1sLS6pr/HKbtr4ro6wSY9dPf5I2zxgywRqYIqNGk1bnocVZRdzw2c1+rnW32Odp9rmbZjwk1yeeOpex4QqVgGCa6CbuDixRCdXCkHvB6nfPXTL13m7KEA3ZwJUu1hq2fon0/JnNf+/a9+s/dwdH+2pQa520PO3eeVCkYholuyryDo3A3NXrbQGpDZjodp5tDo2vB2PTyCu3ASNaqtaskQl4gENzs4EqI+PiYaslpv9A+6Kz3iW+f6n+1g1Qis0+MUckyXUjR9eiBbctULMMw0Q87OC2qmXVG/niVgCT/ciqgHp9KY+P96XxpfboOlcgOrqSoVu/cJsJxVqDAGln2SW4ODmDosX1b+d4bw5QiwvKQCcNEGof3btxOR/etJAb90g45ui/JuY23KsMwpQR2cEyp5dDO9bPJfT1l1dxYW8E5cReFul/HMEzpgR0cU6o5vGvjc+S5vrdqFhDwGHplv+Tk5HC9asIwTATBDo4p7aDH47oLEY5Y3Y8AePxYyrZNVmUYppThsmGp44y2vftQA9bOqn7orN0LiGtIUN8aTFYTNX46pFg90Rm/1WlCY6P0Vg+Is+lJPkRTLZpOI9tVr7UpfyZ9Y2UmF2gfiafhjBiAeEiCpEJfOsw4vu94+Uq1d6HAVFLbUYYraL9OPloz7iXYv7/ER8NgGKZoKINPUcKR5Z/fXU0nChNtrn3uLarJ+/WzeJnrIZGfoswPyTC6kgsqP03i7TTVpvo6TPtwAYKYmQGnpp0BT+7XCQtI1TNadAB0VoDEt44k/6k+uK12FsMwpRS+RFlIWl3//F0gxP1WZQrIDhhXnpzbHBKH01Rb2QQIOhER15CTmxgDcbv3w0szD8DYm3bBxAoqvsDQ/qpSt8W2ynWbP12jRosq1sowTCmDHVwhaNf7+U5UgW9alSkEFQD/Q8GFRssOOTk3ObxrqMv1RRwc27sfXnx/P4zrhjA65GMYM+Ao9dlmk7iMMjyD8hud4cY1Fes0bWNSMAxTmmAHV0BaX/tMXS86X1PTG2dNTAHZAy/VIfcz2KqhUFmAc6cAnHsAKm87AC89kwKvnGvjcuXo/s1bjuzd1IOmC7woGwLiB0JAExeKH8vXbJTH6O4Mw0Qj7OAKQPy9E2McJ/ZLahwbWhNTCGKoZ1aIE4XGCOIJAO+GFBi7bB+MffgYvFrXxuXK8eSt+47u2/IvkDiOenN13S73yzaKYZhSAju4ApC+78hYahQTrMoUEpHD064F5Dw6oF9NA8/O5e7Rs/bCC7dQ77CijcuRo/vLPYGI20nsV6F2k3rGyjBMaYAdXD5p13vcACHEQ1bNiRQAPGVlJgRkmI9Ddb/uw0rre84tv/Mz6h3uPQBjP6Te3ZXzYLTbJglgQzr1xL8kwSVQ8EkLw5Qi2MHlg7Y3jO2AgJN0E5oDCOAR0rkFsegHfS1NuADV05NhI014YGrFP+GTihuVWon2y0AK57SBSjv2w0vjDsHYDioiE6mHSqIfA/fgGKYUwQ4uROKvGVsLpPgGhChvTTkgn1j7/eM/WYUJkeow8js6PZhs1ULjosPaQ6cbf7uPWYsPUV+AGOYFWEG9uvXUq3tiLzzXjOz6tQQQmO1rJwzDRC/s4EIgIWG0OyPG9Tn12860ppz4cv2M/xtrZSYfUL1iTUi9nXrHj6qXu625wMSgA60zasIuVypsilEfmckO9epaUvCMA+7N/8ioPUr1yXult/hLRzIMUypgBxcCh2pVf1YIuMKq2aBGea046eYv0hcCAWNkbRj5Ui0o34iq8W4J8DPVa4E/o9Xv+Fk6fLbqUvDmsVtmltssfo85UKFdRl1440iPn/bDS3OSYewdB+H5qjYJwzBRCju4ILS7YfyNAnCEVbNBTechdFx91vw4kr9IHwYEDE6tBSPfqwMjugnwnkk9q8fIvMbEhs4NJ1roXtyCuF0wtMY8OOqk2xiDcnnflP8DRlWZB276Gfw7tSutW7houtIF8IEXXHtTYOzn5Oy6miUYhok22MHlQZt+49oA4vsk5vZUiVcI/Of66Y9usRYmjNSCUTtrwogXa8GIdh4QbanCX6Re3d82Ok/c6MBbBy6HZp6qMKvcNri0zhfwWLUkeKvSKni+8hK4utYUGEHOTfXuXjx6GXTMyPp8CTm6chTcTM5u/n4Y+3UKjOdPejFMlMEOLhfa3DqhuoOuadTS5f4elcCn104f9YPVmCKkHgxfSz27x2pB6pkI4jJydO9TLyzPh0LqeSvCN/uugzuOtwKPQPi6/J8wtvJSeKfiatjkPgidMurDlEN9oHfa2XaJnKGzm74AGW9ZlWGYKCHnnkkpoDCjCfTv/5VrE+6ZScv3DFiOJqkDpZB92trpI25QXk6bAmh1zX8OUw+gKo8mULQgfFDuIBzsTXvldgF4Be2LGBuVjZPCAytjk2GvcxwqYgy0zqgFDbyVbWxwaCcfrwXHqqh7hdbEMEyEwz24HPgT944hB9XTqjmAG9OlHJiTc2OKDwF3ptWE4V/UhhG94iCmEZ1AjKB9s9pGZ6E8uqHLqQbQ9+TZ0D2tab6cm4IcKO9rhoky2MGdRrsbX+tNrdkTVs0O4lEpRN8/Zjx2+ktWTAlSGR5Jrg0jx9WCke0dEO3J2b1KZjUYbZgQv3HvjWGiC3ZwAcTfMvEfAsXH1JjldulWIji3r/tmxO9WZyKQGjB8NTm7oTXhWENydNfR9DWdmRT282mf2JBhmCiBHZwlvv/Eql5vxnQBIvdrVwKeWTt92LdWYyIc6nF5yNHNpKnfCXDOIEf3IE1LacrX5UZKv6smNP7UqgzDRAns4BSjRzsSPB+RczvHWrJBLeL3q9scfdqqTJTRGIYfJEc3gaYLyPWpr5i8QPt0n4nNG+rOjxNwY9YX6RiGiXjYwRHtN9R9klqx662aDWoI/xReGABj+B5MaaA2jPi9Jox4nBzXDmvKi/0ZAJOszDBMFFHmHVzHm9++WgiRe88MIRWk6Lv626GF/kYiEzmkwNjLKDjPaHnyan3gr9QwTDRSph1c+1veOgsQP6XeW871gIjCgX+tmfbIOmthSgkOoPoEWJ4g4GEHPG9alWGYKKPMOriW/d+oJFB8AyByf+lbwIurpj4yxWpMKWE/jI2XIHL9eHYAb9aAUTyEDsNEKWXUwaGIc2I+EACtrSEb1Hn7cVWrQ7m/D8dELbTfH6WJ/vMCU2Mh4xWrMAwThZRJB9fhpnceFUL0s2p2ELZlCM/N/FBJ6SMZxrVAwBusmisIMKkqPHHAqgzDRCFlzsFR41ZJOPiMVbNB8SdQiL4bpg4/aE1MKUKAHCFAuKyaG2nlwcWD1zJMlFPmHJwAoMYt1wZOPVZy7+opg1dZnSlFJMOL9RwQA62aK9Rt/7ASDNtjVYZhopQy+5BJTpB3G7966uDJVmV8kNfvNGRxlYse+rFxwqB5LdR02dCfGnQZuaCyeknepop4XOA8QoEa5y0PMMML+KJVmFJOfPy9MXXbDqjYsHO/8pCQ4LZmJjyIqk3aVatYt1md2rVbVrK2YiXIjfboJffhckjWoUpF5+papJnEeVX2JV+VlDTGo2IKQ7QPl5MwbF4tSIcr0REXU8Hjqdzqyx9qXDyhqspUmhJ0rZ6kcBOZ1Kjbi6X0zl34ds8/VKpI4hC8Us0Dnu20X/IcuJS29ePaMDJoLy9U1CfgPJh+mYNQ11i8AXMfdJxkMZweS/G+Q8lP1jQ6QUAa9EoPOs6aDd//3zKlGmv+SUgY7d5bLq2r8OJZCI4rx/UGBIbMNEaykacv6jNIG+/AAbfbmfv7/94sknufjbveWl1kYHdE5xKqkvYCQb0mVA0FOrqG6AdLwUGy/0W2TVSwlRLx112VU5ZDUlKh24VAGrS6qh0KJ14CxmpDlro5raJs/WRW8ekVSTF5La+wedC56gF3TPq8PZuWp2hDEVCjRosq3nIxo6hObxcCz6CQmmKkEuB6EsYf2bPpA0qWuTlFCDs4CqkB2QHeuPNWTb1rv7IWlmh0cGoMvOQz6l9Px+E9pF5JEzVmvnqydWZEM9P1adBxfp00xA0Oig/TXMffX/Zm34h4UCMFxj1OZXvWqjlCW6B2WCv1pRNjKRzt+715O4J8XQioYurH1pGqLi1rwYQ68NWyslsbkVm/1qYDZVV2v8GE+l/NrA1xQbo4dfOf3z+7yxhC55yrnuwiwPsxic19+flKmFm+zHXpeZZy+uyBuk/22ZVgbQQdO8cRvCO2zp/0tjUVmsYXDIx3UI6g9fWlNRiHorDl0Wv3l0GVx4Q6xsgHafoWpfejnaum/2ISFYyGLa+qIYXzKQjRU63TZKTWk5mlWa/VA8qlJa37JhNkSa8xurFYe0B+1N6dpPbp8ZStS8YbY/iofkYrNWzV/8izqJMHsqiymDhTIppL+Ppocv2bAcJ70pATZf4SJf2g0mjWL1zOLeoYPdq5+JGkfybXr/c7dc++pgO/B03BHsLIEzqxaElnwC/GeMtv73LfD89dce+PVW1UibALJlagn/VQq+YBTguXc+t4w+vXCCE/1M6tJBGiawzE/tCy/+jMhj0E/nHl462pJ/AjZdDcmooHARUFOG81u+ReckaFo2Hnu2o0ueD2jx2Qyyjfm+m4zFcdZCJq0HSnEK6fG7Xvu7phhz7UOBfk0vxoRwrXNO3cShD6fZen4NXazS6401jCRHx8DP3up2vnlgf0m7ihar09/8+qRQr34BD+pK7zfHVaofFdLtEJKEar1qbzUBrp2mTSGFlbdRpyFKqXFhvpPbhuDy84xwvwHh1wF5lto8lsoiprgK7LrgS/7qsLhY7z65mynmtZJtP8wYVvX/21MhU3KfDSYDrUX7dqjtA2UEnleXXgsRXWVCja9399NTUkbTPrTYU+Wa/PJ5hQB77Uym5tRGb9WpsOlFXZ/QYT6n8189kUZEF554ZZYz60hqCcc9Xj39Pvp5fRMvPTeWvBl39gnJqpuY3LcRmf7LMrwdqIzLLjmi3zJ7Yz1vzTpMvA9uDFb+nYbqxXY/P1l0Vhy2OifXaVzoSmLNpIKNko1r5CCjl498rpi7QxBOq16dnTQTHLn6kujxa07MPkn5nGCiat1n2TCbKk1xjdWKw9ID9fDMm7U7YtbUSSr6EqFNUbtLyHcs78bquvrL7VacHqKNMdR551aM/WUL4HW2DYwWlRzew+9serBCT5l1MBOTyVxsb70/nS+nQdKjFyHdylj8wfSK54Ah0CFWxhyWrKrdDb4td12ZXg1016g47z65mynvvy1eCEX9/qNZhO4XyGImcdjI6tC5X/pGOhsTXlCG1DYm0YGZYza3XfTUKG/nZpZr0F1AMFxq4FE+rAl1rZrY3IrF9r04GyKrvfYEL9r2Y+m4IsiO9vmPX0XdaQJ00SRpcrXy79KC0WYyyZ+em8teDLPzBOzdTcxuW4jE/22ZVgbURm2RFPZRyouHPx1JMmJnSaXzAw3iNgLp1omt6zzt7k6y+LwpbHRPvsKp0JTVm0kVCyUfx5oPSSadCu1dND+hj3GW16PUuLqkvlxqDLowUt+zDrzUxjBZNW677JBFnSa4xuLNYekJ8vxnJ2ytYlf1q5MDjVGrTaQCvIHJHFV1bfqrXg00lDHHc0efMIpRUV/BRlWQNRXDp04XO06+lsXjm34kQM6nL/9+pJxmKjHlS+NZhzU1DvLc/7c/nBk34i4k4c81Ogyq50dUnZOreSgdpGb5WjIoenJfKm6QV31aXTypm0vcVwaVhdyhdvnNHmulyH2coKRtxxES6qN2jdgzYuxHqwCLirqJ+uZAdXthCXDlusbiyPMmoJgOLR4nq14Cvorx6UCfpRZWJ+HXhsvpULjRl5AtdbNVJYaMOoQAiRtGHDlPyPwed4X6eF61utyBECYhwn+LuVGgm/WikioI7U3pStPbZYtVCgwBDucWdFgKiW5mT8y6pFAju4MkTC0EVPUjDEaCUDNQj1uu7q1MKqRUoCdOpDa/yHVXOFfmhh6735kfgU/eztxZmSBQE3npLVo2ZEckRMdbxOvi9dNe18eycK+hut+EAhmlkxT3a3rPQDHRGLrRoB4NMAhf8cYbUGrdvSb+hyq+YPIR+ieZH5IXZwZYRLHll4rQAs6JNL1FCLXTSjXg5+R3oi/VBXUkt0zETnj4wYLNRTmqFAjbqggzvox7Ip3coaMHy2VcPGyq8f+oZajvupjkp0LDnaT8sQXT03Jz58ypoiFnJskmYLhJAJfy6cUICvCTmDrRAUWtcxqpvpdAD8F1COpOOATv7kW3SM/0pxaTZZiGBoT2BPmeLFGHkdrWuetZQMCKdoOx8/sHXpRGspJPgwzQp0+ZUcY/NKdZrlOth0YSm114TzeMhEcUTLWlcmdRKjdBVQWmM0NvqX6sVJrdo4bTeS/6nLgOWEwKokikh5yCRhxJJ64PWuo4OpprEElF9jdBP6LLrMf9A0ER3P17++dmW2p53Uu3O76lTrQI7kBuqx3EkbXjczL5uVL18LSjwUU79CnaQx3Yr0HZgDMK4HbcEPVs0VCfLGOvBokQ2JdH7v12umu2UPgb66N7eV/KfNWjAaHa9UZuip68vWoULvqYB6RClHUWLz8EXA8pl4yUJ9IJDr1n331C+Uc2ZmIdD6ssfremJgb+Zu861fSdZo9P9ARvr7Wi8AafQXSMzJ2IObl75+1Kr5Qn2R5EBsegrVYRVdXF1OX1ntjMpsy/9aOXfc//2x8P0cT9DUl01i3aeuppR30UnhFVR/dIib5RWn1YESLt25anqSVUKiwbm9LkBHxqNA8/UUb+Y+NJKZO3SehiDVd1Fdem16nb7JBHqrEBfR/AtjJLw5376k7TmCnvQ5KTtWhOVTdHWatq6bkQ7bKeO4gPo1+MrqL2qgbozaJnH+0X1bLtGGMFMGHRwcWf753bmPARcGIu1F70uHLvqMgluMplD1oA8ti9FNqP7xEKmPzq8x9/1QR1RIGDivnKdixoMC5L8pA/3em87fl6+FGuenF066ZoxVi4z98NJ82gddrZobf9SEYy1FGC7ThIN2fcY9TTU1WteXrjeD3lMB9ehAXPWiHGE+VAdH53BDN/304qvGULI0ufBfdKKFK0xZfeX0ldXOdJnh3e1LP1UfMwiJRuff0Ao9zmg6ae1Hy+v2MrAOiEk7V027T+tFQUKCu95e1wlqqWPMZqi5bzKBKg+1Ne/t/3PB3cZYfFRv0OppOrGlY5bQ9WvLpfCV1V/UQN0YtY3+yY2fd2TPluXaGEb4EmUp59Lhiy6gA/BmqwZH4BohZMf5rye8m5/hgpI+6pb264Srxnm8Ga3oeM35kh/ipw0Onfiv1YqMg/DyxSE4NwJfiBTnxhQWb0hP8DnCk+f7kKfz97Kv1+9cOeVG6kZdRI3xHDq21aVedUnnTzqeh5Bzu9+kLHs0bNi5PLUtg6yaBxj0a0ZSQr4fUgkFdnClHXSeonlIPXU64VpFh1pC0vhuf1lTvlk88dpdv77VvSedlV1LvdaPqVH4kcL3JXh7/Drx6tumTLkx349+5xcJMpR7bztqQuonVmWiHAccewk4KMk2zBfbV05dtHPlN93rOn9Vhjin8s6V087euXr6GxRluiJlkBOQegs1LbWtmiNUORuopx/0qW0BeGP5Gmc1sGrYYAdXilFfKqEDJ8SXl3Gf2+W+hpxbGC59CVzwdo/vFr7dc+DCt3tdtXDi1XctevvasD/IkRP7YWw8/ai6WzVXqIc3lnpvRf4tPKZ4oH0e0oNLHojJ8zNSwVi+fHlGQV4+L4U4UoigvS46s55QASp+RmfPQcbXFDFutyfkh4RChR1cKQZdMQPpwAmp9ybQGTT3lS75/iBv5IGP0wbnuc3UGO47AeJdqzKlAIEQ0tOqjvT+m4fFKTw1GrW+nE4SW1s1R+h3djQmw/loz57lJ8gZqhEE8oTyu6d+/fph/fgEO7hSjBAY2jtBCEk/v9a1RL4TGU6o9/YP2uo+Vs0V8n7jG8NwPgsvRUiE3VbMGyGuanyy4U8NO9/axlqYAiDBCX7PDOGT/fs3pGrZ43mL5sHud9c87ikXtqGqFOzgSimXP7K0Gf2aQ3qhGhFKywCfo8h55XlM01nlEQc8b1qVKSXEoGutFYNCx0iCywurmpx/65zG5908oEm7gUX6VHVpo0aTVudSHfawam5IFzr+39nR/Zu30K8v0aq5I0C9+J3nFZj8ELaMIo2y/ppAt+GLb6Pd+7HZZDVT2+/D6NqCsKfO7l2NiuPhj6LkELxyphe8m0gM8g1FfL4WjHzcKhFFtL0mQOK/vTHuHF4WNiftviAvYl3ekxuSJoSQMjhNO9/xO7Vo5+ji6nL6ympn+pi3NoWtU/rLIHGBQEgElD/taI6r1UvZJlEJE4GvCdRo2OZtFMK8GuEvj5HVn+V/h3dtuMLKmsr1zu7pCJhlkph0Or1P9+0PAdceS96mPihRaLgHV0ohB9vWinlCB9PsaHduCnJuIykI5txOeiAmIt7bKhUI+I/Lk7HPlZGuJ0dN6adocpspxqUnEeOYyS1oAjO5YB+4cF869aibXzxoafNLHuhmcy0wQmDIwwFlRcTQyXA32p4XwBHLG20V+xvH9/+qUcf+d9Rr3y/PpwTLGpXqx9eiNuN2q+YKCpntKsmxvZvmUBD825cSw/ZBdnZwpRQ6Fwrp8qQAXGLFqGUfvKw+rhvKR1vfrwePFOgxcaaoEI4QcL5A8eNZFz9wtTUWCMfrmUDn/4Xev3RyWJ3m/Un4IMaBPY069Euk6aaWLfsXcMDU0kOs23Mf1Y8aMDVXaB/sOLKz7kyrBuKlyKC3B4QQl1Ws0zSkE/RgsIMrrSCE9EV1r5ThGAuqhPEOo1k5I+cM/egy6GB/yapMpCGoPydgAvRXI0AUjM1LJx8lR3kP7e0wvrxPfU0hulP5vjgaK/9q1KHvsIad++XZwJdaWrSIo9/Rg1bLFeoNTwRIyvkVnNi4DxHhhNVyQz36HZYXv9nBlVZEqONhxYT2odgIZReMrUVnlA9YNS8+rwEjt1uZiUhE4+Z76xR4FG/FtsUfzkQQg9RNKWsKG9Tq0kmjGAdp3o0NO/QJ9pBFqaNmeoUbqXeV94kzQprHm/GO1bJxZMfaQxRMNlruCMRbqBdX16oFhh1cKYV+5CGdCcfGiKh+2TkWYAid7VW0ao4ggBTgfd6qTAQjUFa2YoH5a/GHEyWK66insM+awosQTeigmtWgfR/12Tk6/MoE5HMcdaUkT6gypqTu3ZznSbMjMfhTzELEOSiD9haDwQ6u9JJhwzzxeot7VO/wsR9eUI1hKOPbfVsLRm20MhOh0IlIhjvOWWfVQrFj6UffZ0hsSZm+iYDhHyqIujLUmD/ZsF2fV6ylVFO1QbsE8l7trZorwgH1+bI8Obz/z9WION+quYNwHzRpkueth2Cwgyul0OlWSI+RC8gI+/ffigsB7ruokalu1RxRDx/T/3NWZSIafP/3/70Z9MO8obJ72ScH/lry8WDpymhGvbn/0rTTRoUPAQ83aNe72EcIKW4cV/B7YnQisezgzg1LrRqEzHfkckWIOpWOY6Hqlh1cKQVBhPTZLYmQ5+d2IhsZypOT/6sNI5dZmYlM1Guin4kKbjVwZtj5e+EXu7cv/eTf23s1b0Infglkeo3WqB5Xp5OfwkMnWS+36NQjxHve0UetBu3PEiCusWruhPCEpI+jNd3TyCEGHZOO1lvgwVQV7OBKKQJDezqSDqAiGWiwqNkNz9Sm0ofwuSXuvRUV5JVm0uxREvWEIB8lG00kqwlIpskXDyhpIl0vg49KlR5wiCOx/Zb5E/65OfH1oh11fMwY+deyz37ZvnTyw9uXfdZCer1nUTkeoPJMoTDFpso/AmqfTI+9w2qlDq+jvy4SxFfg/sMV0jMHXA3Ghg3pNA8+oriA1lVqN7rSavmmwJ4x0uEvmSztS+v92myymqnt92F0ZaH5KXkK6y9462L1dFPUsA/Gnk2/uD+smiO0fYtqw4guVo14eMDTkmS00+T89RdIdPUGCf2FwKam3m20lrPXgRVIxAW7Vn97sTWEjxL+kknVxm2qO+DaQW1pJWNRK/TXgJZtCV44vHN90GFxAilf85wzYtyev8gNxfjy1aFv7ssbMTE1ZUeIo6JkJWocXPy9X1V1Z0AbRFFfOOgKHOJdvT/on/uHapdqIL6LAyrJF56kM83MS1tmIS1qZIBMdr+WJV3AugOGhjcSzRHfEwgVcnBwvzpS3YQNyNcn6cDIlM6L6OzxAKzd+tMLR7Qxn1z2+KK6mC72ANJPlXI09eDD6JkWHJb0ateoulmOMDHmABzbQWI9Y8mK2kL6v6I2jJxrTREPO7iIQTTqeNOVILxP0u/HXuHIuQ6sQCKm7XLvrALLl4f0cFfIlLCDq96440gBMuBbtWqF/hrQsmo00SObH967Md+v4VSu1+ILaqBu8uWrQ988U5fohdapB7fn+0GxiHZw/ft/5dpeVdwopPruGaoRml3+jdaVrEKVkhyJ1lWUcSp+52LT+xxc9uV0LM0y0xtdJSDJv5wKpA6MHpDOl9an61CJNk8V47ebSafVUSpPZTOyNmldT15yxr9KiRM319r5ZX6/j9dt2OJltIvP8+fnx+g+C5Vt1/GT5c5ePum8YC9gRhQp8OIV1NxPJzHbawJ0YL9aE0YUySjBRQU7uMijccf+D9GWqm0UOdWBFbTsoGy2Y83MbdYYHkrSwcXHx9RIkVso80bWQqgV+mtAy9RuzTi0a/311pIvKtU+u6vjyPm+fHXomwfoxDvH9m+/18ohE7H34C6465tzd1RxL3XQ+UwIkSBCfK+rVCHApe6ROUJMPvtAw9/+kfBQPh8Icb60Qp4IAQ0qljv5tFWjhlrw6E90StCRxE/pZ6B7uvTTUw3/kzVgeNB3dhgmGDtWTHmN2tmPrZon6BKhjioeFdRKkTdQEODcckY4IuirAbmRun/Tr/SbXWPV3EEcUKl+/VpWC5mIdHCd75p6ERVsMTXsqvFiDO29jrPwrMseCfk6v/B4P6GGP8Qb9zj8kod/LtB17ty48P5ZHS68/4eHLrrvh4cvfGDW+dYcVurAiE21YMRttaBxTTrNrbkOUmuT/iydGPhP/ZiywRnn31azaeeBd515wcBnmlxw27Azu/zzHBtVKOgEe5YV80R6QxtVPEoQEkTQk0T6kf1+8O91P1m1IKCDwd+do51QHjJi7rdayEScg+t838wGQri/pQ0qtY/dFhT6oVUGidObXzws6FmVYu5rFyYDyqCfxVFQ3nQsOF8lPDRfXQouFPH3/li16wOJXznCWUGZjidf8yodxEsvuu/771ScTRZWBNzobQzDD3aDMVH9ZRamYDTpfGefWLdrKx3I79Kx/AQdzuNAujacecFtLzdJGFiol4UlBtxozwOXA8esGPVUbxzfRQAEPylFVAOZFupkspyo+BllEPSSu0AcBNAyXx+8jrwenFc+R61VqerqhxUBNYTbG/IApS50PUMHoXokNyjmSSmcnfDQLwV+0vPiBxK7lHd5l5OYfTRxIa6Og1MhXTZlmFA586I72wmBX1Kv/fSTYoeOuaHipFzZpNPtBR6OR4ATyqs08vhJ+NvKUY8jMPiL3YjHnPJpBRyiKJPk5DXHBeD7Vs0dIepXqHHsFquFREQ5uPNv+6YmNbI3W5XJnRvOThgW0vXo/73aaSs6zlirhkIFBPzkkod+nt51yC8trS0oCYPmteg6aM6HCEJ9gqe5sWaHzq67X3TvjEL3EhnGh/DCcHJuuY8FKMQ/yAHOPfP8Ad81jr/1ImUxEcFp2L6f+kSVGdwzD6ix33HgjxmlogdXtXGnphT0NlqeTD64efNRKxcOKVRP0PdUXq6Q483Xi98hJywOLrpnRk8JOEv3ePUTNCrI+enGTF1FUhqtqyj7JGLAcipR4FOMWZfTsTTLeT2Zy6mgmJ+itKF/WTW3aWh+/ZZ542doJQidhy4sXw7EbyRah2XzNQphdBP6LNpGq8GfEZxvUHgXu4TYUl6ePHnYfcxBb80qsRmiOTjeTojiWir7pdSQ0AmTLy8tWdnoGrPexxZOvDrkXmhZIQpH9J5GR+LPxuBrncxcoy/sBegae7XPb86M9yKcktK7+K9fJ662ppBoeuGdGyg412i6XLacvrLamT72tH0diV+6JM7JiMlYu3Px1JMqRSajnSbxa8+W6LqbfnsP0UlZwHtaSjKhT9cWlO/uWj3jHmsIHyXwFGXNMzu+DCioB6dzpsCuS2N0vVoQbQ79vXq9jSg0Veo0Vfc69XMAeo3+bbXo9dIfym7HD+zyH3d5EVEOrstd3w5ABz7RG2Ur1deg+zbO2E1odBVJabSuokz6wOVUotLm4Ei7a/O88cG79ZZLhi5sIxAW0Y+1oj9fG+fTTeizBOpK07JaShdAIPpvqJs4nVBrPlnPffn6IJ22eOSiidfkp1dZLByCV6p5QeY5MkGouMA5Xh3y54SizsEZISBOzdTcxuW4jE/22ZVgbYSy0fE+tVK51DvW/PjpcWvOk6ad/7WKDkg7zI7OWOejBWsyRp27NmnUehE9dDyqS4t76ZhW77CVpyTNKb8aOq0/uVneSNboLzdZELvtWv1tSI1uvihmB1ejRacqIsND9aEu9+qcKbDr0hid/n4+9PfaQo/CHkjlWs16CQe/V7Jeo39bLWa91ALhzOMHd15nrXkSWffghOTxukLEAfGXFUPil1e6rKUDZAAdHvl6ly4LgvpoIFx0VlSop8UEivA3BIVAjUqQAi9N84D3IP2KdoZj8oDn4H546ZtkeMN+AYIJFTq++h1Pq5TrmGLZEDDPSvlHgJtO+prSOi+ko/sS0s+nqYaNDQlybsuKxLmVBBnyX1QPQR/wE7LgrwbkxrGUrbPJh221aq7Q/upVuVaDs6yaJxHl4GIyDi+joyWqPhlVIiAeOSUPLbRayCSNv2g69eLuonOigju5wkJn5wsnXa0ul0YQzmv0s+lNjVzYrmiocwGa+jiQRnkzBeDm5gmDWlg5T9zoGUsHFp2clADqYwyO/iBwaYAOWTnYyrlC7cfOg7uqf2vVcOKlEkywcl64EEMa5DiyHFzSR3emUeWNtyqTCyjgje1JH6VZNV/8/GqXj1B6b6SeXLF/tYTWOTMN5ECrRgSHYUJ1+lUX4fdBcUAKjA/rKy/HTx32XfsuEtJiA26MlRwCvd6Q3p38c/HHuyQ4V1DbEdIHxsMJCvHU7pXTF1m1JAm4llcwajfq2EyAk+sDYj4E4kRqrYvkdRwRm/EB9eJOuyeaA6i/bBWUyLpEScRlHHqBAvWYOZMD5CRWZcjqaiThAvPL+Iu/oYzU02R5fqw4XKgeIx20/1lYt1fv5ZOui6jPgSGkqSfG3EYLP+Q8Yxw4daZV80SGcvWCCtzgJBRpHXaovPkgrafkr6TQtlopKNsXvb/yVHpMezrOxtFvJLzfg8wFOq5f3rVq2rNWLRqSkjx0Qhv8HTEBeY6iHQrS5QT/HSCccsdg6JeP88nRnTvVbYKg7+7SiUVIDjbiHJzqxUkpriZxhbEwmeBqr4Ae25PGFKj3FkjS+K6rUk/EdUREdXmnyBoEyn+jkHDpwom9noIxJEUYJyC94MOkhIgEV0iDeLrBNUfVmFVzhBrvn5OSivZl9in6m6cY0uepipAT5byeJCuHxJ7lk078tfjDEeQQ2lL5vyFT0RxvxvEOIec23BiKFgHmwYu8kCgSrVhgDjSpuIV+r0EcJU7Zt21dslWKBCmEuqyf975DCOnYiDgHp1jy3vXJWDm9K/2Yx5Ea0kvKpRlq8TLowHv1WIUTXbbNfS1sB5f6uPIv47uOROluRflPpqY1nA3nDspvUEy98m1/ndRrgbVFHGfAqL+phldaNezQMby0FgwPafDZldOHqq+lv2u0HEmjH+wTVi5S0iWOprKvs2qxgwKf2LD4vQLdV9u+6KPf/1r88Q1SetvQcT2Rfj/heVeLikV8J91O+50rvwn7Qxa5Ib3Of2hf5DqqCP3Ovk35c/4vVi041Fuk3HLvkSIe8Tri31YrMo7v27aWtul1q2aD9mcKuGNC+sh32G6qFxWd7v66ofDCnULIXnRwqTOz8mTWX/ZWf+pfO3utE77H6G2o7CoRLavD7MvpWJplpje6SkCSfzkVFNNrAigpOZ6knUM7Gmd53fjBljkvF/lXEhKGzGuI4BpI9XIjqW3U9TVTzMDy2pneHoMpv9aP0bI/Upknp3l3zFw+6b5iuVRUWPbBCx0FOHNoc8P8BR1M8QJeWRceXWUNQWnZf3SsK6PSa7Tv1TtV+gRU16+Ue6iKB66bOepHZSsOml3xWNUY4fyXVj6AyqPHUMw8Dnz737/vTYyWbZzfHqj7ZJ9dCdZGAh35WxwUYzYveOtTayw09ePvrVDOdfJq+qVdR9tyOTUf9XWELY9ee2YZ9L+x+2TYSctNkwjv7lr5dfAPAxcBdVte1om6aZ9TeZqZQplCEl+KcnF3J6/5MaRXKkJA1Diz47MCYSTJLlMHetoOjuvmg9tXLDbJihx35VpnvgYC1Uv2piNG5ZAot6Jw+p9I2RHSFb6Id3CB6OFzYitVRHdqBWuy5LFvs9ytCH4MZE2Rw62OoFnk5zg7La1V02JcJ7dW35qa3+FxwkmXBxec4RLpFwvhtKcDS418XJ8O86o0OYJaW2qJjpND2AdC/o0gNgrpXX7CW2sZ9QqjwqmdzlEYWysNZB8HnDq0rYX6XdjTlOQMcKY1gBEFugTa4dpxLbwu75USRRWq/03Hqh//YftHhb80XSD693edva9ldTccD/FeZdbfTai/CPTiqR0L3irqe3+iyQU3NQGvS33I/Rw6nhtRb7G2QKle53BRe64ecDhEdb4THPkHdWmW7v5t6iayUdISJj4+pu7xylfRAdaKyncC3M685I3zwvaidSB1Gp/XzCtkd/IoVagR2ni48qlEOwp3sVK5VtOzUaiTEllFSNh47EDlRIDiLwfDMAzDMAzDMAzDMAzDMAzDMAzDMAzDMAzDMAzDMAzDMAzDMAzDMAzDMAzDMAzDMAzDMAzDMAzDMAzDMAzDMAzDMAzDMAzDMAzDMAzDMAzDMEzZAuD/A5vZeIpHAtumAAAAAElFTkSuQmCC;" parent="1" vertex="1">
          <mxGeometry x="104.94" y="30" width="298.06" height="126" as="geometry" />
        </mxCell>
        <mxCell id="bVUHs7jFZVV0znrBEBwu-31" value="" style="points=[[0,0],[0.25,0],[0.5,0],[0.75,0],[1,0],[1,0.25],[1,0.5],[1,0.75],[1,1],[0.75,1],[0.5,1],[0.25,1],[0,1],[0,0.75],[0,0.5],[0,0.25]];outlineConnect=0;gradientColor=none;html=1;whiteSpace=wrap;fontSize=12;fontStyle=0;container=1;pointerEvents=0;collapsible=0;recursiveResize=0;shape=mxgraph.aws4.group;grIcon=mxgraph.aws4.group_aws_cloud_alt;strokeColor=#232F3E;fillColor=none;verticalAlign=top;align=left;spacingLeft=30;fontColor=#232F3E;dashed=0;rounded=1;" parent="1" vertex="1">
          <mxGeometry x="985" y="10" width="585" height="730" as="geometry" />
        </mxCell>
        <mxCell id="bVUHs7jFZVV0znrBEBwu-32" value="Amazon S3" style="sketch=0;outlineConnect=0;fontColor=#232F3E;gradientColor=none;strokeColor=#ffffff;fillColor=#232F3E;dashed=0;verticalLabelPosition=middle;verticalAlign=bottom;align=center;html=1;whiteSpace=wrap;fontSize=10;fontStyle=1;spacing=3;shape=mxgraph.aws4.productIcon;prIcon=mxgraph.aws4.s3;rounded=1;" parent="bVUHs7jFZVV0znrBEBwu-31" vertex="1">
          <mxGeometry x="472" y="600" width="80" height="100" as="geometry" />
        </mxCell>
        <mxCell id="bVUHs7jFZVV0znrBEBwu-52" value="(optional)" style="text;html=1;align=center;verticalAlign=middle;resizable=0;points=[];autosize=1;strokeColor=none;fillColor=none;" parent="bVUHs7jFZVV0znrBEBwu-31" vertex="1">
          <mxGeometry x="477" y="700" width="70" height="20" as="geometry" />
        </mxCell>
        <mxCell id="bVUHs7jFZVV0znrBEBwu-41" style="edgeStyle=orthogonalEdgeStyle;rounded=0;orthogonalLoop=1;jettySize=auto;html=1;dashed=1;strokeWidth=2;fillColor=#60a917;strokeColor=#2D7600;" parent="1" source="bVUHs7jFZVV0znrBEBwu-5" target="bVUHs7jFZVV0znrBEBwu-12" edge="1">
          <mxGeometry relative="1" as="geometry">
            <Array as="points">
              <mxPoint x="490" y="339" />
              <mxPoint x="490" y="660" />
            </Array>
          </mxGeometry>
        </mxCell>
        <mxCell id="bVUHs7jFZVV0znrBEBwu-5" value="CFN Template" style="sketch=0;outlineConnect=0;fontColor=#232F3E;gradientColor=none;fillColor=#B0084D;strokeColor=none;dashed=0;verticalLabelPosition=bottom;verticalAlign=top;align=center;html=1;fontSize=12;fontStyle=0;aspect=fixed;pointerEvents=1;shape=mxgraph.aws4.template;" parent="1" vertex="1">
          <mxGeometry x="559.61" y="300" width="65" height="78" as="geometry" />
        </mxCell>
        <mxCell id="iBH5Nsfj8ljK5VvBtSij-1" value="" style="shape=image;verticalLabelPosition=top;labelBackgroundColor=default;verticalAlign=bottom;aspect=fixed;imageAspect=0;image=data:image/png,iVBORw0KGgoAAAANSUhEUgAAAgAAAAIACAYAAAD0eNT6AAAACXBIWXMAAAsTAAALEwEAmpwYAAAgAElEQVR4nO3deZwcZZ0/8OFGvG9RNErmeeqpiYBr9Oe5jqmeHMZwCRFQyIIcIckkEVRwQQVZVlHRJauikSOZqgTduO66h7uuewz3HcAQzgCT7jkyk/uYycz000n9npqEQI7J9HRX9aeOz/v1+rz8A9Tpeo7v09Xd9a2rIyIiIiIiIiIiIiIiIiIiIiIiIiIiIiIiIiIiIiIiIiIiIiIiIiIiIiIiIiIiIiIiIiIiIiIiIiIiIiIiIiIiIiIiIiIiIiIiIiIiIiIiIiIiIiIiIiIiIiIiIiIiIiIiIiIiIiIiIiIiIiIiIiIiIiIiIiIiIiIiIiIiIiIiIiIiIiIiIiIiIiIiIiIiIiIiIiIiIiIiIiIiIiIiIiIiIiIiIiIiIiKiKq121IcLOTW7kLNvyOfUjwqO9bW8Y/+lP73uMPTfRkTp5dfVHdL+WftjZr+Zn3fUD3fFnt/epD4e/DP030eUWnmnYbop/E+Zwu8fKOYw0F5wVLPf2Hg4+m8lovTwr6k7tDCh4YKCY7843P4z9M/MvxP8u+i/lyg1Ch8/7jX5nP3rYRfeflF3d02pfzv67yai5Hux6fg3mjcXfyh3/wn+3een1L8B/XcTJV5wW9+crP+t/OK/J8vXfdJ6PfrvJ6Lkamscc3TBUfeMdv/JO3arOQQchf77iRIt76grKyj+u2/JqZvRfz8RJVfwGX+l+485BFyH/vuJEiv/6RPenM+pbRUvwJy9s22SVOjXQUTJ095Yf1whp4qVvwGxB9oaG96Ffh1EiWSK/2UVL75Xvg9wE/p1EFHymL3jb6vff+xvoV8HUSKZA8CD1S7AfM7u4LdyiWi08o79XNX7j2OvQL8OosQpOOI9wS38EE7gfkdOfQL9eogoOdonjDspjL1naP+ZYFno10OUKIVcw9ywFqA5SNyIfj1ElBzBF/hC238cdSX69RAlilmAd4a1AE3a+JQuIirXwR44VsEB4GH06yFKjM5G+bZ8TukQDwB+W87+C/TrIqL468gpGebeE3yU+dIEewz6dRElgin+l4S5AHdFXY9+XUQUf3nHvirs/SfvqK+iXxdRIpgF+MfwF6D9HPp1EVH8mf1ieQRvQO5Gvy6i2GtrPOlNBUcNhr8AbX+109CAfn1EFF9tjdb7w/r10T5vQHasnqyORb8+oljL59SMKIr/7lP4t9Gvj4jiK2gtHtX+Yw4Bl6JfH1GsmXf/v49sAebUE+jXR0TxZYr0/dG9AbH/hH59RLHV09jwunzO3h7hAvQLjQ316NdJRPETPLc/uFUf4RsQHfzCCf06iWIp32R/MdLiH8Sxr0C/TiKKn4KjmqPef/KOdT76dRLFklmA/xD5AsypB9Gvk4jix7z7b63BG5B/Q79Ooth5fkr9UfmcvTX6A4C9s7Op4X3o10tE8RHFw8eGOQAMmL3uDejXSxQr+QkNp0S++HZndc6eh369RBQfBUddVKv9x/x/nY1+vUSxYk7GLbVagOakfxf69RJRfOQd9Z81OwDk1G/Rr5coNh4dP/4IswA31OwAwIdyENFuUT587MD7j+rrnDb+GPTrJoqF/AQ1qXan75cXYcNM9OsmIrzVE+zzar3/FBz7NPTrJooFsxgW1nwB8qEcRFQX7cPHhn0DklMe+nUTwfnX1B1ayKk1tT8AqGJhUsNb0K+fiHBq8vCxA98B2LxyesOR6NdPBFVoUo2Ad/8vn8L/Cv36iQinJg8fGybtjv059Osngio4agFqAZr8K/r1ExFOLR4+NvwbEPsW9OsngvHr6g7JOyoPOwDwoRxEmdXWOOboWjx87CAHgHV+Y+Ph6OtABNH+WftjwHf/uw8BfCgHURaZAnwqev9pd6wJ6OtABJHPqR+gFyAfykGUTbV8+NhB7gL8FH0diCDMAWAVfAE6qm/NxBNfi74WRFQ7tX742EHegKwJfgmFvh5ENdU+YdxJ+MW3O446HX09iKh2Ck3WZPi+szsdOfUJ9PUgqqm8Y1+HXngvhw/lIMoWs//8Cr3vvLL/2DeirwdRTRVyaiV64e0JH8pBlBn+9LrD8o7qge87r6Qt+EUU+roQ1URHTskYLLq9wodyEGVDe876LHq/2TdtOfsv0NeFqCbyjn0VesHtm3xO3Yq+LkQUveCb9+j9Zv+o69HXhagmzIRfjl9w+xwAHHs9H8pBlG67Hz5WQO83B9h/nkNfG6LItTVa7zcn8J3oBXegrJ7Q4KCvDxFFJ/jGPXqfGXb/cRoa0NeHKFL5nLocvdAOcgr/Ofr6EFF0zP7zI/Q+c5B8C319iCJlJvl9MVhow4QP5SBKM7PGX8DvM8O9AVGPo68PUWTaGhveZd5l70AvtINl9Wflp9DXiYjCF3zTHr2/jHgImDBuLPo6EUWi4Kg56AU2Yhz7x+jrREThC75pD99fRs430NeJKBJmAf5vDBbYSOFDOYhSyLwBeToG+8tBk3fsB9DXiSh0HTn11nxOafQCK2sRTlDj0deLiMITfMMeva+Utffk7J0dk8a9F329iEJVcOwL0Yur7Dj299DXi4jCU8ipb8P3lbLTMBd9vYhCZd79/wG/sMo8hTvqefT1IqLwmP3nCfS+Uv7+Y7eirxdRaNZ90nq9mdj96IU1qkxUH0RfNyKq3uqJ8gPw/WR0B4DSCxNPfAf6uhGFopBr+DJ6UY06jroGfd2IqHoFx74Cvp+MMu1N6mL0dSMKRT5n/xN6QY025hS+An3diKh6+Zx6EL2fVLD//BF93Yiq1jlt/DF5R/WiF1Ql6ZhgWejrR0SVKzjiPXHtPXLwqGL+0ye8GX39iKrSnrPOwC+mymIOLleirx8RVW51zp6H3kcqzeoJ9nno60dUFXP6vgO9kKo4ADyMvn5EVLl8Tt2F3kcqjqN+j75+RBV7fkr9UQXH3gJfSJUeAHL2zpcm2GPQ15GIRu9F54PvDL5Rj95Hqkh/8Asq9HUkqsjqnJoWg0VU3SHAUV9FX0ciGr280zATvX9Uvf802V9EX0eiiuRz6nb0Aqo6jroHfR2JaPTM+v0TfP+ofv/5Dfo6Eo2a39h4eD5nr4MvoCoTtC/ON1nvRl9PIipfW+NJbzLFcxC9f1S9/+TUtsLHj3sN+noSjYop/k3oxRPaImyyZ6GvJxGVL+9Y56P3jdD2nwkNp6CvJ9GomNP3zeiFE1oc9d/o60lE5TPr9l/h+0Zo+4+9GH09icrmX1N3qJm0XfCFE1KCNsadjfJt6OtKRCPraWx4XSFpvUcOGrVp5fSGI9HXlags+aaGT+MXTciZ0HAB+roS0cgKjjobvl+EnPwENQl9XYnKYt79/wS9YEKPY/87+roS0cjMO+bfwveL0KN+ib6uRGUxxfIl/IIJ/QAw8GLT8W9EX1siGl7wjfmk9h4Z4QDQ7U+vOwx9fYkOKt9kfQS/WCJKk/Ul9PUlouEVHHU6fJ+IKhPsz6CvL9FBmXfK34cvlIiSd+zfoa8vEQ3PvPtfgt4nIoujFqCvL9FB5XP2s/CFEtkBQPWtmXjia9HXmIj29+j48UcUcmojep+IbP/J2R1+Xd0h6OtMdECFieqD6EUSdYL2xujrTET7a59gT0XvD5HHafh/6OtMdEAFR10DXyARJ+/YS9HXmYj2l3fUbej9IfL9J6d+gL7ORAdkiuMK9AKJfgHaW9saxxyNvtZE9IrgG/Jm/1mL3h8ij2O/hL7WRPspNDbUwxdHjbK6SX0efb2J6BWrJzQ46H2hVmmfMO4k9PUm2kveUVeiF0atErQ5Rl9vInqFeff/c/S+ULv9x/4u+noT7cUcAB5GL4yaLUDHXh+0O0ZfcyLa03ukE70v1C5qJfqaE+3R3lh/nDmV7sQvjBoeAnJ2E/q6E1Fd3erPyk+h94Nap22SVOjrTjTEvPv/KnpB1D7qF+jrTkQp7T0yQvKOfRX6uhMNMcXwbvSCABwA+GxuohhIZe+RkfMo+roT1b3ofPCd5jRaisGCqHmCtsfo60+UZanuPTLS/pMTx6OvP2WcKf6XohcCMH+Hvv5EWZbm3iMjHwDU5ejrTxlnJuKf0AsBuADb+WxuIpw09x4ZMY59L/r6U4a1NZ70poKjBuELAZpxH0WPA1EWZaH3yMGSd+wd+Sbr3ehxoIzKO9b56EUQg9yAHgeiLMpC75GRo2ajx4EyquDY/4ZfANjkc2oVehyIsigLvUfKOAD8L3ocKIN6GhteZyZgP34B4NPuyBPR40GUJe1NtkCv+zgk+AVW15T6t6PHgzKm4Kiz0ZM/Lsnn7GvR40GUJfkm9U30uo9RvoIeD8qYQk79NgYTPxYxp/An0eNBlCUFx34Eve7jknxO/QE9HpQhhY8f95q8o3rREz9O4bO5iWqjY9K492at98jBo4r5T5/wZvS4UEYUHHU6ftLHK+YU/tfocSHKArPWLkOv9/il4cvocaGMMAvQw0/42IXP5iaqgeABODFY77FK3rF/hx4XyoBHx48/opBTG9ETPo7hs7mJorW798gO9FqPW/KO6lsz8cTXoseHUq7dsT+HnuxxDZ/NTRStfJM9C73O45r2nHUGenwo5fI5+xb0RI9x7kOPD1GaFRz1PzFY57FM3rGXoseHUsyfXndY3lE96Ike1/DZ3ETR6cipt+ZzSqPXeVxj3pxtbWscczR6nCil2h1rAnqSxz98NjdRFMz6+gp+fcc7q5vU59HjRCllTpg/Q0/w+IfP5iaKQvDAG/z6jnfMNbodPU6UQkHfezO52tETPO7hs7mJwrfuk9brC+w9Us7+s95vbDwcPV6UMh059Qn05E5MHPtC9HgRpUnwoBv4uk5IVjfZOfR4Ucrkc/aN6ImdlORz6j/Q40WUJmb/+Sf0uk5MHHUzerwoZcy72hfhEzsx4bO5icLSOW38Mew9Mqr9pzv4xRZ63CglVjvqw/hJnay0O/a56HEjSoPVTsOZ6PWctOSbGj6NHjdKCXOivB49oZOWfE79M3rciNIgn7PvQK/nxMWxf4IeN0qJgqOehk/ohMVsWtv5bG6i6jw/pf4oU8y2oNdz0pJ3VCH45RZ6/CjhVjsNDejJnNQEty7R40eUZKtzahp6HSc1+SbrI+jxo4QzE+lb6Imc1ORz9q/R40eUZGYdLUKv48TGsb+HHj9KuLyjHodP5IQmn1Pb+GxuosoED7Qxh+h16HWc1Ji9+3n0GFKCrZ4oP4CexElP3rFORo8jURKZAjYRvX4Tn4nqg+hxpIQyE+gb8Amc9Dj2YvQ4EiVRIad+CV+/SY+jrkGPIyVU3rEfgE/gxEdtWjm94Uj0WBIliX9N3aHm8NyFX7/JTj5n/xk9lpRABUe8x0yenegJnIbkJ6hJ6PEkSpLCBPsz6HWblnRMsCz0eFLCFHINc9ETNz1Rv0SPJ1GSmDVzE37dpiN5R12JHk9KmLxjt6InbnrCZ3MTlWuo9bij8vh1m47kc+oh9JhSgnQ2yreZSaPREzdVmWB/Bj2uRElQcBr+H3y9pijBR7mdTQ3vQ48rJUR7k7oYPWlTF0ctQI8rURKYNx8/gK/XlCXv2PPR40oJYSbLH9ETNm0xp/AOPpubaGRm/3kOvV7TF3U3elwpAdoaT3qTebc6iJ+w6Uv7Z+2PoceXKM7aJ4w7Cb1O0xhzqNqxerI6Fj2+FHOrJ9jnoSdrWpN31A/R40sUZ6ZQXYdep2lN3mmYiR5fijnz7v/36Ima2jj2S+jxJYqzQk49BV+n6c2f0ONLMdbT2PC6oI99DCZqatMxseFD6HEmiqOOnJLo9ZnuqGJhUsNb0ONMMZVvsr+In6TpTnCLEz3ORHFk1sbV6PWZ9uQd63z0OFNMFRz1G/QETX/UU+hxJoojsz6W49dn6vOv6HGmGHp+Sv1RBcfeEoMJmvq0NY2z0eNNFCdtjdb72XukBnHsAbPXvwE93hQz+QkNp8AnZ0YS3OpEjzdRnBQc62vodZmZOOps9HhTzAR96+ETMytx1GPo8SaKE3Movh++LjMTtQw93hQjj44ff0TeURvwEzM7yU8YNxY97kRxMNR63LF3oNdkVmL2+r7OaeOPQY87xUTQrx49KTOXCfbX0eNOFAcFRzXD12PW4tinocedYsJMhoXwCZmxBLc80eNOFAdsPQ7Yf3LKQ487xYB/Td2hhZxag56QWUvwjeeOSePeix5/IiS2HgfFsTevnN5wJHr8CSzoUw+fjFmNo5rR40+ExNbjyDRMQY8/gQV96vETMZsJbn2ix58IKe+o/0Svw6wmn7NvQY8/AQX96c0CzKMnYlZjDgClFyae+A70PCBCYOtx8P6Ts9f5jY2Ho+cBgQT96dGTMOsJboGi5wERAluP49PuWBPQ84BA8jn1A/QEzHryjv1H9DwgQmDrcXzyOfun6HlAIKb4PIeegAxbdFL2sPV4PGLGoCP4JRh6PlCNtU8YdxJ68jEvL0I1Az0fiGqJrcfjk46c+gR6PlCNmZPfd9ETj9kdR/0ePR+IasnM+X+ArztmKOYNyI/Q84FqrJBTK9ETj9mT/nWftF6PnhNEtdDWOOZo8wZkawzWHbMrbcEvwtDzgmqkI6dkDCYd86oEt0TR84KoFkzxPxW93pi905az/wI9L6hG8o59FXrCMfvEUf+AnhdEtVBw7Bb4emP2iboePS+oRsyAP4qfcMyrk8+pbYWPH/ca9NwgihJbj8czwS/C0HODaqCt0Xp/0IgGPeGYAyzCnH0qen4QRanQZE1GrzPmwGlrGmej5wdFzLzTvBw90Zjholz0/CCKknmn+Sv8OmOGybfQ84MiVnDse2Mw0ZgDRm1ii05KK3963WF5R/Xg1xlzwDjqMfQcoQi1NTa8y5zAd8AnGjN8mqzJ6HlCFIX2nPVZ+PpiDpr8hHFj0fOEImLeYc5GTzBmhAXo2L9CzxOiKATPnUevL2aETLC/jp4nFBFzAPhf+ARjDhq26KQ02t16vIBeX8wI+49jP4CeKxSBjpx6az6nNHqCMSMnuFWKni9EYQqeN49eV8zICX4h1jFp3HvR84VCZgb3K+jJxZS9CNmik1LFzOkb0euKKTOOakbPFwqZeff/B/jEYsoKW3RS2hQc+0X0umLK3H8cuxU9XyhEQaMZM7D96InFlB+26KS0CJ4zj15PTPkxB4DSCxNPfAd63lBICrmGL6MnFTPKRZizb0TPG6IwBM+ZR68nZnRpb1IXo+cNhcSc6H6HnlDMqMMWnZQKBUc9HYP1xIwieUf9J3reUAg6p40/xgxmL3pCMaMPW3RS0q12GhrQ64ipJKqY//QJb0bPH6pSe846Az+ZmAoXIVt0UqKZOfxt/DpiKsnqCfZ56PlDVco79lL0RGIqC1t0UtLlc+oJ9DpiKtx/cuqf0fOHqvD8lPqjCo69GT2RmMoT3EJFzyOiSqyeKD+AXj9MVekPfkGGnkdUodVN6vMxmERMVVHfRs8jokqYNx9X4NcPU03yTsN09DyiCuVz6nb0BGKqXIA59QR6HhFVwszdh9Drh6kyjvoNeh5RBYZ6b+fsdfAJxFSfxoZ69HwiGo2CI94TPFcevnaYqmIOcdvaGsccjZ5PNEqrm+wcevIwIcWxr0DPJ6LRWJ2z58HXDRNK8o51Mno+0SgVHHUzeuIwIS3AnHoQPZ+IRsPM2bvQ64YJKY69GD2faBSCRjJm0LrgE4cJJcGt1M6mhveh5xVROV50PvjO4Hny6HXDhBW1aeX0hiPR84rKlG9q+DR+0jBhJrilip5XROXIOw0z0euFCTf5CWoSel5Rmcy7/5+gJwwT8gLMqbvQ84qoHGa+/gm9Xpiwo36JnldUJnMAeAk/YZgwk3fsHasnq2PRc4voYNoaT3pTwVGD6PXChB3VHfyyDD2/aATbvzvuU2vPUP/X8wXrTiZd6T5Z/sgsxhsYJq7pPt36AXqdMOFn7RdUa/81dhO6vtEItCdvL10rWktzpc+kKxvPse4twN8JMMzw6b9Y3o1eJ0wE+Ylo1a7gQ4HizF84/ggzSBt0i9xZ+rp8ED5pmFAzONvazNurTFwTfPNfzxXr0OuECTf62/Jx7cqSeXPZ5y889hh0naNh6BZrcskzg2aib5eb9FxZQE8eJty0T7IfRW/0DHOgdJ9qPYFeH0zIuVz2mDeV3XvqiidOR9c5GoY5pf3q5YEaGqybxXO6WW6HTyImtKz/orobvdEzzIHSd6F1J3p9MOFFzxVa3y7+vFdN8cQSdJ2jA/CX1R2mPdnz6sEayvf5mVyaMnCptZYPWWHiluBhVcVm2YleH0x40T+Td+5bT8wBYKu/iL0BYse8+3f2K/4v50pxD3oyMeGlMFH9Gb3hM8yr032KtRK9LpgQc5180NSUnQeqJ3pJ/TR0vaN9aFf8fLgDgG6R/aX54hn4pGJCyfrp1p3oDZ9hXp3eC2Qrel0wIeUK0WZqxpZh64knF6HrHb1K8Ox/cwDoGvYOQJCFYrWeZwYVPbmYqtN/iexgq1UmTinOES+h1wVTfUyN2F5qMW8WD1JLzAFgk7+MvQFio+iJvzxo8X954G6UD+m5cid6kjHVp32i/TR602eYIF2fV6vQ64EJJ3qhuKesWtJiTUbXPdrNvPu/qZxBG8rVkt/UTUHWnq5a0Rs/wwTpnaFa0euBCSE/rL+r3DoS/OIMXffI8P26Q7Qn82UPXIvQ+qviz/DJxlSV7ReLNvTGzzBB9Gz5LHo9MNVFf1M8a4r69vIPAGKd39p4OLr+ZV6xZewnyn73/3Jukz16ruhGTzqmurQ3qRfQmz+T7ayZoviwsYRHXyY3meJf9pvIV30XIIeuf5lnBu7GUR8AgiyQj+tmodGTj6k8a0/jxwAMNlu+zI8Ukxw9T+4s3SofrKSGaE/cjK5/mWcOAC9WdAAI8l3+dCfJ6bvQegZdAJhspzhbPoleB0wVuUm0Vlo/TO3pDh5Ah66BmVVssT5ScfEf+j6A3KnZNCjRMZtwAV0EmGymc7Ldo5vlDvQaYCrLy01+qqkhxSXiM+g6mFnaFd+vZvCGDgGL5GY2DUpuek6x+VAgBpLNX7buQs9/psJcLru1J/Z/dPzovwewAF0HM8scAJ6tdgCHBpFNgxKbvvMtPhaYgWRglnwMPf+Z0UfPE8XSor2b/FRxAOgIfomGroWZM+iKk8IYwD35HpsGJTHBLdhCTnWjiwGTrXRMVBv4JeJkRv9M7Nfkp6qPAVrGfgJdDzPHvPu/LtQDQJBvsmlQEtM9zboLXRCYbGXTWdwrkhh9nbh3uCY/Fd8FcOWN6HqYOdqTT4d9AGDToGRm6wy5HF0QmGxl8FLrIfS8Z0YXHTT5ccXW0OuGKwv8GKCGBhePHRf6u/+Xw6ZBiUuxWRQLObURXRSYjKRJ9eq55s1CDOY+U170PNFbWnzwJj9VfQzgyY+i62JmmAv+ncgOAB6bBiUxa6aqe+CFgclENn5R3Yee78woU2aTn4prhiduQNfFzCh54XyD86ADyqZBicrW86wH0YWByUYGZsr70fOdKT/6h7LsJj8V1wtXvoiui5ngL7VF1IM5NKAtQpe+Kp9AT16mvBSbZX8+p7ahiwOT7rTn7AHdLLah5ztTXvRV8intyYFa1IzBJeJD6PqYeubd/1W1GMyhQ8Dtcq2eK3rQk5gpL12fs+5HFwgm3Vl3Br/8l5TsbvJTqFm98OTfoOtj6pVcubxWAzoUNg1KTDafI+9DFwgm3em/yOLP/xKQoUc03yYeqWWt0J54Dl0fU81fZL0/7N9wlhU2DUpEirNE8BFAP7pIMClNk9LFOWIDep4zZeQms2fXuk6YBL9QQ9fJ1Cp54huIQWXToOSkc5J6GF4omFRm3WnWcvT8ZsrId+Rj1Tb5qTiuvAZdJ1PLXOCK+jaHcgjY1TQoD5/czEGz8SyLPwdkIknfRZLNf2Ie/TXRpT2xHlUnSq5Yga6TqeR79cdBbv+/Or9k06C4pzhLbMjnlEYXCyZdyTv2jmKz6EbPb2b4BE1+9CKxAlojTPylUqHrZeqYC/tV9MAO5ftsGhT3dE5Sj6ELBpOu9Jxsr0DPa+bg0T+P/vf+5UVcha6XqWMuaqRPchpV2DQo1tlwJpsDMeGm9yt8MFisc728H14XXo4rl6PrZar4ixrepT25Az6wu8OmQfHOwEyxJp+zd6KLBpOeFOfIAnpeMweO/kY0TX6qib+4fiy6bqZGyRXN6AHdL2waFOu0N9lPoosGk450n6x42I9r5oveUotcBa8H+8aVV6DrZmqYA0ArfEAPEDYNim/Wn2HdiS4cTDqy9Xw+ByS2+VWMPhre+wDwELpupoK/VL5Nu0LDB3S4QwCbBsUyAzNlAV04mHREN5t3mDGY08w++ZHZe2NQAw5YF1y5019ij0HXz8QreWImejAPOtBsGhTb5Cdaz6GLB5PsdE2129DzmDlArpYra9Xkp+K48jJ0/Uw8cyH/BB/IkQ4BbBoUy6w9XbWiCwiT7PSep1rR85jZO/oyubGWTX4qPwCIe9H1M9H8FvXWON/+3ytsGhS7bL9IPo8uIEyyU5wjn0bPY+aVBE1+dI2b/FT8xjD4GODXY9+LrqOJVfKsr6AHcVRh06DYpdBkv4QuIkwy0znF6uKXfGMWUJOfiuOKZnQdTSxzAf8AH8BRhE2D4peeU/lrAKaybPmyxS/4xiga2eSn8gNAK7qOJpK/aMybtCsG4QM42kMAmwbFKn0XWCvRhYRJZoqz+OXe2OTrohPa5KfSeuDJHb6njkXX08QxJ6cZ6MGrOGwaFJsEt3ALjupEFxMmWWmfpNaZuVNCz18mPk1+Kk5L/aXoepo45gDwL/CBqyZsGhSbrJnG3gDM6LL5HIvrNybRN8elyU/F+W90PU0Uf1nD67Qn+2MwcNWFTYNikb7z5ePogsIkK4OXikfQ85Yxxf96EZ8mPxUm+N6Cf1v929F1NTFKnjgHPWihDDybBsUiwa3cfE6tQxcVJhlpb7K36GYxiJ63WY++QrwUtyY/FceVF6LramKYC2xzBcUAACAASURBVPaP8AELK2waFIusmabuRhcWJhnZOF3di56vWY+eL3rNG6gX4Pt3aAcA8R/oupoI/sJjj9Ge6IUPWJj5OzYNQmfbedbD6MLCJCMDM/lTXnh+Je6F79shxtS0or+s4S3o+hp72rPORA9WJBOATYOgKTaLYsFRm9HFhYl7rD7dbN6AxGDOZjYxbvJTVVwxA11fY0978tfwgYriAMCmQfB0TrHvwxcYJs7ZcIb1AHqeZjn6Krkyic9/KfMA8C/o+hpr/qIxR2tXboEPVFSHgF1Ng7rRiyyr2fQl6wF0gWHinYFLBD//B2V3k5929D4d2f7vyQHfq38Dus7Glhn809CDFPkk+Kl8gk2DMNHNVl/eUX3oIsPEM+1NqmjW5ib0PM1igiY/pYQ0+akqS+q/hK6zsaVd4cEHqBaHgGv5fQBUOqeoB9GFholn1p6u+Nt/UIo3iVb0vlyj/A5dZ2PJXzj+CHMA2BiDAYr+ANAid5a+LvlZIyCbzrbuRRcaJp7pv5hP70REf0cuT1yTn0r3fldu990TX4uut7GjPfF59ODUdCKwaRAkg7OtzQVHDaKLDROv5B17h54retDzM3MJmvy4YgN6P65pXGs6ut7Gjvbk7fCBqXWCpkFzZR98EWYs7ZPsR9EFh4lXuk+1+AudGido8lNanOAmPxXGHHh+g663sbL79n+2ToEvh02Dap71X+RTAZm903ehxe/l1DgpaPJT2QHAk33BA+/QdTc2tFc/CT0o0AlxJZsG1TIDl1pr845dQhcdJh7J5+ydxWbZiZ6Xmcr14j70vgvd8115GrruxoY5ES1EDwh0MrBpUM1TmKj+jC48TDzSfYq1Ej0fs5TdTX62ofdd7AFAeOi6Gwv+srrDzAGgBz0g8ARNg+bKzejFmZWsn27diS48TDzSe4FsRc/HrCR1TX4qPQB4Ymvw4Dt0/YXTrnTQgxGbsGlQzTJ4qewMbv2iiw+DT3GOeAk9HzOThelq8lNN9JL6aej6C6dd8XP0QMQpbBpUu5jN/2l08WGw6fq8WoWeh5nJjSlt8lPpXu/JRej6C+VfU3eoOQB0oQciTgmaBmk2DapJ1n5BtaILEINN7wzVip6HWUiqm/xUutd7cpO/rOFIdB2GKXriL9GDEMewaVBtsv1i0YYuQAw2erZ8Fj0P057dTX460PtqHKNbrMnoOgxjToQ3oQcgrmHToNqkvUm9gC5CDCZdU1U7ev6lPUGTH32beBS9n8Y15mD0K3QdhvD9ukO0J/PoAYh12DQo8qw9jR8DZDVbzuX6ijrFv5et8H00xjFvgtf5rY2Ho+txzRVbxn4CffHjHjYNij59F1rPoAsRg0lxtnwSPf/SHP1t+VBWmvxUtc97MoeuxzVnJsaN6AufhLBpUPQxxaCALkZMbdM52e4Z6kEfg/mXxuivZbDJT6V7vCduRtfjmjMHgBfRFz4xYdOgSNNzis2HAmUsm79s3YWed2mNnicHSovlU/B9MyExtbA7eCAeuibXTLHF+gj6oicubBoUWXovECvQBYmpbQZmycfQ8y61+UV9Jpv8VJPiEvEZdF2uGe2K76MveBLDpkHRJLgVXHBUD7ooMbVJx0S1gb+wiSh/m+0mPxXv7Z5cgK7LNWMOAM+iL3gSw6ZB0aV7mroLXZiY2mTTWTxIRxF9hVylPdGL3ieTGHMA6Ah+GYeuzZEbdMVJ6Iud5OhbZbueKzaiF3vasnWGXI4uTExtMnip9RB6vqUtu5v88HtdVST4ZRy6PkfOvPu/Dn2hEx82DQo9xWZRLOTURnRxYiJOk+o1a6cfPd9Sl1vE/fB9MeEJfhmHrs+R0558Gn2h0xA2DQo/a6aqe+AFiok066db96PnWerCJj/h7OmuLKT6Y4DBxWPHoS9yWqJbZKl0mVwOX/wpytbzrAfRBYqJNgMzJQ8AYeZq8SSb/ISXoic/iq7TkTEv8DvoC5ymsGlQuCk2y/58Tm1DFykmmrTn7AHdLLah51laoi8T60zxX4PeB9MU7Ykb0HU6MiVP/Bl9gVOXn4kV5hBQRG8GaUnX56z70YWKiSbrzuCX/8LK0FMUb5Ns8hNyggfkoet0JPyl4nj0xU1t2DQotGw+R96HLlRMNOm/yOLP/0JKcQGb/ESVwSXWCeh6HbqSKy9EX9i0hk2Dwktxtug1xaIfXayYkNOkdHGO2ICeX6nIteJh7ckd6H0vxZmNrteh065cHIMLm9roxWKbnidegm8OKUjHZPUwvGAxoWbdaRa/MBtChpr8eGzyE+le7goPXa9DZ17YE+gLm/boX4hn2TSo+mw8y+LPAVOWvoskm/9UmaDJj17En3FHH/FndL0OnTnVdOIvbAZyg7gXvVEkPcVZYkM+pzS6aDHhJO/YO4rN/LVM1fmFZJOfGkS7sh1dr0OnPdmPvrBZCZsGVZ/OSeoxdOFiwknPKfYK9HxKevT32OSnZvu3J/vQ9Tp0wYtCX9ishE2Dqs+GMy02B0pJer/CX8lUE32lfJ77d+2iXbkFXa9Dp12xGn1hsxR9i+xg06DKMzBTrAluHaOLF1N9inNkAT2fkho9X2wzBekF9H6WpZjD1ip0vQ5dyZUPoS9s1qJ/XP8gmwZVnvYm+0l08WKqS/fJinfCKoyeZ/aOW+UD6H0sc3HFveh6HTrtip/DL2wGo78lePuzwqw/w7oTXcCY6rL1fNmKnkeJzY/5sB/Inu2Km9D1OnSlJfIs9IXNYtg0qPIMzJQFdAFjqotulqvQ8yiJ0Wzyg9uz3foz0PU6dP5t9W/XniiiL24Wo28XPWwaVFnyE63n0EWMqSxdU+029PxJYvTX2OQHtlebQ5ffot6KrteRKHliGfoCZzX6Z+ZEz6ZBo87a01UrupAxlaX3PNWKnj9JS9DkR98ml6P3q6xGu3Ipuk5HRi+xJqAvcKZzHb8PMNpsv0g+jy5kTGXRs+VT6PmTtBT/np/7I1NskZ9G1+lIlTzxn+iLnNWwaVBlKTTZL6GLGTO6dE6xuvgLmNFFXyceNu9Ad6L3qczGlf+Frs+R85faQntyAH6xM5pdTYPki+jNJknpOZW/BkhatnzJ4t2uUUR/XXawyQ8uuz/7l+j6XBPmBX8TfcEznV9Yz7BpUPnZ/hVrJbqgMaNLcZZ8Aj1vkhI9X/aXFlvPwPelbOdydF2uGd+vO8ScNpfE4KJnNz9i06CyN8i5cmchpzrRRY0pL+2T1DozZiX0vElMfinvhu9HGY525WJ0Ta45f9GYo82L/xP64mc6V5qFj958EpKek/kxQFKy+RyL87rcfF/cD9+HshxX/ru/rOFIdD2G8FsbDzenn1/BByGjGWoa9FX5NHwTSkD6zpePowsbU14GLxWPoOdLEqK/ySY/0P3XFbf5C8cfga7DUMHHASVPXGUuhkYPSCZzi1yt54oN6M0o7gluKedzah26uDEHT3uTvUU3i0H0fIl79FfFNr2YDdoQGXrCoisvQ9feWCm64mPaE23owcli9I/Fw/zJ1MhZM03djS5wzMGzcbrid1tGyFCTn1vY5Aey13oyX3StT6LrbSwFj0A0J6N/Qw9SFqOv5kOCRsq286yH0QWOOXgGZvI5FyPmx6IVvd9kM+Kf/aUnvBldZ2Nt10cC1nw2oqht2DRo5BSbRbHgqM3oIscMF6tPN4te9DyJc4aa/LAnS2331qHn3ljz0bU1UYot1kfMhXsBPXhZir5drmXToIOnc4p9H77QMQfKhjMtvvs/SPTlZn2zyU9t91RPPDe4RHwIXU8Tyffq32Am7G/Qg5ilsGnQwbP1XOsBdKFjDpyBS/hsi+Gi58lS6Xb5KHp/yVRc8Vt/2fFvRNfRxDMXcgZ/rlLDsGnQ8Btps9WXd1Qvutgxe6e9SRV1s9iEnh+xzd/zc/9axdSqft7yD9ng4rHjzMVdiR7cLIRNgw6ejinqQXTBY/bO2tMVf/s/TNjkp3bRrnhmcIl1ArpeppJ/q/V6PkK4RhOZTYOGzaazrXvRBY/ZO/0X86mWB8pQkx9XbETvJ1mIqU2u7574WnSdTL1dHwmIXvSApz36Zvk8mwbtn8HZ1uaCowbRRY/Zlbxj79BzRQ96XsQtu5r8CDb5iXqf9MTWkmt9GV0XM8VfKlXJE39GD37qw6ZBB0z7JPtRdOFjdqX7VIud/w4Q/QtxD3z/SH8eC1rco+thJgUNhbQnF8RgEqQ7bBq0X9Z/kU8FjEv6LpT80uq++b45uKP3jZRn6Jb/suNeg66Dmafd+jO0KzejJ0Raw6ZB+2fgUmtt3rFL6OKX9eRz9s5is+xEz4dY5UrxHH81FV1MrdlSWiLPQtc9ehW/RcmSKx9HT460Rt8iO9g0aO90TFRPoAtg1tN9svUUeh7EKXq+3GwO7C+i94v0RjziL64fi653dAD+gvqj+JFAdGHToL2z/gzrTnQBzHp6L5Ct6HkQlww1+bmVTX4i2ftcuTOoLf6yhiPRdY5GYAbrNP70JaKFwKZBezIwU3QFt6DRRTDLKc4RL6HnQWzyY3MYisEekbZoT6zXS+qnoesajYLfcvz7Sp64Dz150pagaZC+nE2DXo4pQk+ji2BW0/V5tQo9/rHJ1fIxNvmJJA/6i6z3o+sZVcBvbTzcLIprtSd3xGAipSa7mwatgW96McjaL6hWdCHManpnqFb0+MchQ01+WkQ3el9IU/bc8l84/gh0HaMqabd+ohlQLpAwFwibBg1l+8WiDV0Isxo9Wz6LHn90zBrUpdv55edQ9zYv6Joop6DrFoXI9+qPK7nybvTkSlX+ht8HCNLepF5AF8OspWuqakePeyzyM37uH2pc8X/+Hda70fWKIuAvqzuMHwmEFzYN2pW1p/FjgFpny7l8+E/pu/IhNvkJJ+Y6loLaENQIdJ2iiOkl1gTtii70pEtD2DRI+tsvtJ5BF8SsRc8SK9DjDs0VYjUffhZOzHVsLy4Rn0HXJaoh3z3+HSVP/BE9+dIQNg0a+jVAAV0Us5LOyXaPbpY70GOOCpv8hJr/9u/4wDvR9YgAfL/ukJJnzefPZ0JIxpsGdZ9i86FANcrmL1t3occbmoVs8lNttCv00C3/a+oORdchAgtu/2hPdqAnZeKT4aZBvReIFejCmJUMzJKPoccblhv4ReZqY/b6fNG1PomuOxQj/lL5tpIr/x09OZOcLDcNCm5JFxzVgy6OaU/HRLVBNwuNHm9IgiY/rtyOXueJjit+7y9reAu63lAM7flIwBWD8Ima0GS5aVD3NHUXukCmPZvOEvegxxkR/VW52RT/PHp9JzXmXf9AsLcHezy6zlDMFT35UbPY2FGr0sWW0aZBW2fI5egCmfYMXmo9hB7nmhf/eXKnOVg/iF7XSY32RFvRFR9D1xVKEN+rf4N2xT+gJ29i823Rit44a75RzxE6n1Mb0EUytWlSveZg2Y8e55rnJj7sp4r8o79ozJvQ9YQSquSKGfzcbfQJHraUxaZBa6aqe+CFMqVZP926Hz2+Nc+35ePBN9bR6zlpMftPf3DLH10/KAUGvbEfNovwefSkTlr0bWJd1poGbTnXeghdKNOa/pkyUweA3U1+etDrOGkxe/Uzg4vliei6QSni32q9XrtyKXpyJy1DTYOaxSB6M61VinPkQD6ntqGLZdrSnrMHzDzaih7fmhX/XU1+nkCv36RFe8L13RNfi64XlFJDHwl4ohc90ROV67L13PauKdb96IKZtqw7I1tf/tM/NWsGvW4TFPOuf5v5z3PR9YEywG8RtjkIrEBP+qQkaBqkvy4y0zRo8znyPnTBTFv6L7Iy8/M/fR2b/Ixqf3HlU4OLx45D1wXKEH/Zca/RnlyAnvxJSZaaBhVni15TtPrRRTM1aVK6OCcjz5YImvy0yC3o9ZqUDN3yX3jsMeh6QBlVapHn7b79BF8McU+WmgZ1TFYPwwtnSrLuNCsTvyYZavLTwiY/Ze0lrjkkueJs9P5PVOe3KFly5ePoRZGE6B+I+9AbbS2y8SyLPwcMKX0XyUw0/9Fs8lNeXPGov7h+LHrfJ9rDXzTmaH4kUGYy0DSoOEtsyOeURhfPpCfv2DuKzaIbPZ6R5wfmkINelzFP8L2IYI/1lzUcid7viQ5Ie+J07YqN6MUS52SlaVD7JPUYuoAmPT2n2CvQ4xh19F+zyc+Ie4YrN2vPOhO9vxONyF9ijzGT9n70oolzstA0aMN0i82Bqkzv+Vaqf0KqL5ObzIG4gF6PsY4rH/Jd+QH0vk5UNr+18XDtiWuDR+LCF1BMk/amQQOXyu7gFja6iCY5xTkyjx7HyIr/PDP3b2WTn2H3h5dv+S8cfwR6PyeqiHbrTzYHgfXoxRTbpLxpUHuT/SS6iCY13SerZ9DjF2luMnMfvf5iGlP41+ol8nPo/Zuoav6vx7635PEbvsMs9FQ3DVp/hnUnupAmNVvPl63o8YsqeqjJjyyh118s44pW/w7r3eh9myg0/Ehg+KS5adDATFlAF9KkRjfLVejxiySXyx7tim70uotbggNRsEf6y+oOQ+/XRJEwk9wxi78LvdjiljQ3DcpPtJ5DF9OkpWuq3YYetygSNPnRt4s/o9db3GL2xW7t1k9E789EkfPd499RcuV/oRdd7JLSpkFrT1et6IKatPSep1rR4xZJfsYmP/vFFf/jL2p4F3pfJqoZ3687xBwCruTngK8krU2Dtl8kV6ELatKiZ8un0OMWeq6TD7LJzyvRrtBDt/yvqTsUvR8TQRRb6hu1JzvQizEuSWvToEKT/RK6qCYlnVOsrtT9PPQK0cYmP6/EHIQKxSXyU+j9lwjOXyrfZhbFH9CLMi5JY9OgtafwY4Bys+VL6Xr4jznQbmeTn1fFFf/iL2t4C3rfJYqNoY8EPGu+dsUgfIHGIGlrGrT9K9ZKdGFNSoqz5BPo8Qr1AMAmP7vWtCeKwceewV6H3m+JYqnoyY9qV76IXqyxyDfT0zQouKVdyKlOdHGNezomqw3mWpXQ4xVafljPJj/e0Of9q4te/cfR+ytR7PnLjn9jyRPL0IsWHXMQGkhT06Cek/lQoJGy+RwrPYe+b4pn2eRnKL/zF415E3pfJUqUkisu0Z4pgvgFjDsEpKhpUN/58nF0gY17Bi8Vj6DHKZTiHzT5cWUevX6ga9eT/cHHmuh9lCixBr2xHzYLaRV6MUPzE/GwbpY70Jt61UVhrizlc2odusjGNe1N9pY0PAwqaPKjM97kR7vi2UFXnITeP4kSz7/Ver15N3EHelFD8+10PBd+zTR1N7rQxjUbp6t70eMTSjLe5Ed7wvWXNbwOvW8SpUrJFTO0J/vQCxyzqaSjadDWGfIRdKGNawZmysQ/BCrLTX6Gvu/gikvQ+yRRavlefUPJE0+iFztkg0lB06BisygWcmoTutjGL1afbha96PGpKkGTH0/0oNcJqPg/NeiqD6L3R6LU85cd9xrzjnghetFDkoKmQV1T1b34ghuvbDjTSvS7fz1PFEuLstnkZ+iW/8Jjj0Hvi0SZMvSRgCu2oTeAmudvkt00aOu51gPoghu3DFwikv35/89E5pr8mMK/teSJc9D7IFFm+Z5lmcX4BHozqOnGk/CmQbrZ6ss7qhdddOOS9iZV1M1iE3pcKk4Wm/y4crnvjq1H739EmecvGnO09uQC+KZQy0PAItGr5ya3aVDHFPUguvDGJWtPV8n97X/Q5McN3gnj10TN1p4nF/oL6o9C73tE9Cq6RXzBLM5N6A2iZhvRL+WqpDYN2nS2xe8B7E7/xcl85LOeJ3pLi7PT5Ee7cnPJtaaj9zkiGoa/xB5TcuUD6M2iZptSQpsGDc62NhccNYguvujkHXuHnit60ONRUbLU5McVD/uu/AB6fyOiEfgLxx+hPXFDVj6X1Fcm8x1kx2SV+WcCdJ9qJbPz3w9lJpr8BHtI8PFisKeg9zUiGgXtWadoV2xAbyI12KQGdAKbBm34opX5pwL2XZi8X3Toq+RTWejRYfaOdbpFTEXvY0RUIf/XY99bcsW96M0k8s3qFtGZtKZBA7OsdXnHLqGLMCr5nL2z2Cw70eMwquK/q8lPAT3fa5A7/cXiPej9i4iq5Lc2Hq49cW3wON0YbCzRJYFNgzomqifQhRiV7pOtp9DXf1TFP5hbt4lH4PM8wuy65S9u8JfVHYbet4goROYAkDOLew16k4k0CWsatP4M6050IUal94JkjVXpJvP3oud3lMXfCx5lXD8JvU8RUUT8Oz7wTrPY/4TebCLcxHaULpOPwotFmRmYKbqCW+HoYoxIcY54CX39y8535GPpbvIj/tf31LHo/YmIIhbc3hv6SCClG1rSmgaZYvg0uhjXOl2fV6vQ173c6K+JLrNe1qPndSRrxRU62Av8a+oORe9LRFRD2rM+azaATvQmFEkS1DRo7RdUK7og1zq9M1Qr+rqXVfzniaJeJFbA53MkxV8Wii3y0+h9iIhA/Nvq315yxX+gN6NIkpCmQdsvFm3oglzr6NnyWfR1L+sA8PPU/t7/X/0W9Vb0/kNEYL5fd0jJs+ZrTxRjsDGFliQ1DWpvUqvQRblW6Zqq2tHXu6xcL+9Hz+HQ1wRv+RPRgRSXiv9nNoeX0JtUqBteQpoGrT0tOx8DbDk3/ndm9DfS1+THvJ7VxZaxn0DvM0QUU/6y499YcsVv0ZtVqBtfApoGbb/QegZdmGsVPUusQF/vg2a+6C21yFXoeRtqXPlP/tIT3ozeX4go5vZ8JOCKQfjGFdYhIAFNg0xxLKCLc9TpnGz3xP1hTXphep6cqT3ZH6xl9J5CRAlTXKrGmw0kNe+E4t40qPsUO/UPBdp8jnUX+jofNClq8mMO8M8OLhEfQu8jRJRQvlf/BnMI+DV6MwtnQ4x306DeC8QKdIGOOgOz5GPo6zxsrpYr09LkR3vC9Zc1vA69fxBRCpRcMcNsjn3oja3qjTHGTYOCW+MFR/Wgi3RU6ZioNuhmodHX+YDX/jK5MQ1Nfsxr2M5b/kQUOt+rbzCbzEr0Jld1Ytw0qHuaugtdqKPKprPEPejrO9zBKw1NfswB/enBJdYJ6H2CiFIquK2oXeGhN7uqE9OmQdv+ylqOLtRRZfBS6yH09T1gFiS/yc/QLX/3xNei9wciyoBdHwmIXvTGV/mGGc+mQXqO0Pmc2oAu1qGnSQXPY+hHX9/9rnfCm/yYNbi1tKT+S+j9gIgyxl8qVckTf0ZvghVvnjFtGrRmqroHXrBDzvrp1v3o67pfvi46E93kx5XL/aW2QO8DRJRR/qIxR5t30wvgm2GliWHToC3nWg+hC3bY6Z8pY3UASHqTn13f8j/uNej1T0RUp936M8xBYBN6Y6woMWsaVJwjB/I5tQ1dtMNKe84eMIesrejrulduNmOOnneVFH5XbjH/+UX0eici2ou/yHq/2ZweRG+SFeUbIlbvULumWPejC3dYWXdGvL78p68XyWzy44qH/aXiePQ6JyI6IH9B/VHBRwLmncpO+IY5isStadDmc+R96MIdVvovsmLz8z99hXgpaU1+grUUrCl/WcOR6PVNRDQi3SJPNRvtBvTmOaqNNmga1Cx60UUqSHG26DXFsx9dvKtOk9LFOfF48JKebw55LfIF9DwbXfEX67QnPo9ez0REo+K3HP++kpuwxio/jE/ToM4pKvFfBlx3mrUcfR335FcJm4uuvMtfLN6DXsdERBXxWxsPN+9grh363T16Qy33Xdc349E0aNNZyf85YN9FMhbNf3SCmvzsueW/cPwR6PVLRFQ13SKazMbWjd5cy9yAY9E0qDhLbMjnlEYX8UqTd+wdxWbRjb6OQ01+EtLa2hT+Ht1iTUavVyKiUPle/XHBbU30JlvWRhw0DWrGf3bdPkk9hi7klabnFHsF+vrtbvLTjp5PZcUV/+d76lj0OiUiioS/rO6woY8EkvD41b/DNw3aMN1KbHOg3vMt6PMVhsbu9vg3+QnWQrAm/GvqDkWvTyKiyOkl1gTtii705jtiwE2DBmfJnuBWOrqYV5LiHJmH3gFYIFrh82fk4t9e9MRfotcjEVFN+bfVv73kif9Eb8IH3aBj0DSovcl+El3MR5s109Sz0Hf/yWjy8yf/jg+8E70OiYggfL/ukJJnzdeeKMZgQz7wIWBX06AuVDFbf4Z1J7qgjzZbzwfeOQma/MT4GRTmb9O85U9EtFvRFR8zm2IbenMeNsCmQQMzZQFd0Ecb3SxXQd75zzMHycXxbfKjPZkvutYn0euNiChW/Bb11pIr/w29SQ8bYNOgQpN6Fl3Uy03XVLsN9u7/5jj/ykT8s7/0hDej1xkRUSzt+Uggrr/bBjUNWnu6akUX9nLTe55qhRT/68V98PlxgJh3/QPBnEavLSKiRCi2WB8xG2fsntuOahq0/SK5Cl3Yy779P1s+Vevrs7vJzzb0/Ni/+IvnBpeID6HXExFRovhe/RvMpv4b9Ca+36YOahpUaLJfQhf3kdI5xeoyB6SdNS3+cW3y44rf+suOfyN6HRERJZbZSGdoT/bBN/RXB9A0aO0p8f8YYMuXAA//WRivJj9mrvbzlj8RUUgGF48dZzbXlejNfa/8dX1NG91s/4q1El3gR0pxlnyipsX/RnknfB68uvi74pnBJdYJ6PVCRJQq/q3W67UnlqA3+Vc2+9o2DQpurRdyqhNd5IdLx2S1QTcLXbPrcVW8mvyYuen67omvRa8TIqLU2vWRgOhFb/hDm36Nmwb1nBzfhwJtOtuqWRvl3U1+OtDjv7vwby251pfR64KIKBP8pVKZg0A8HvhSw6ZB2863nkAX+uEyeKl4pCbF31xrfZt4FD7uu7Iy+HgKvR6IiDLFXzTmaO3JBTEoAjVrGhQUv0JO9aCL/b5pb7K31OxJiX9vrjV6vL3dt/wXHnsMeh0QEWWW9qwztSs3Y4tB7ZoGrZmq7kYX/H2zcbq6tybF/ztyObrJj/n/31JaIs9Cz3siIqobeoywLLnycWhhqFHToK0z5CPoIreA1QAAC29JREFUgr9vBmbKByK/+/G1ODT5EY/4i+vHouc7ERG9ir+g/ij4RwI1aBpUbBbFQk5tQhf9V2L1Rf1gJD1PDpQWy6eA7/p3BnPLX9ZwJHqeExHRMMxmfZp5p7gRdgioQdOgrqnqXnzh35UNZ1qRv/sv/aIe1uRHe2K9XlI/DT2viYioDH7L8e8recDmMBE3Ddp6rvUAuvDvuf1/iYj28/+/hTb5edBfZL0fPZ+JiGgU/NbGw827t2uHvqBX63eNETcN0s1WX95Rveji396kirpZbIrsdV4hVyGe+bDnlv/C8Ueg5zEREVVIu/UTzYbeXfMislC8ZIrjtqiKY+dkG34XYO3pKrLf/u9u8vNizcfNk2vNfJmCnrdERBQC36s/ruTKu2tdTKJsGrT5HAv+PYD+i2V0T/+7Rdxf8/Fyxf/5d1jvRs9XIiIKkb+s7jDIRwIRNQ0anC23FBw1iCr+ecfeoeeKnkiKf42b/ATPFgjmRjBH0POUiIgiopdYE7QrumpXXESx9FX5ZBSFsmOygj0ToPtUK5rOf1eLJ2vZ5MccCDuKS8Rn0POSiIhqwHePf0fJE3+sWZGJqGnQhi9asKcC9l0Y/s8d9WVinSn+a2r47v+//UUN70LPRyIiqiHfrzuk5FnztWfeodei2CyQy/VcWQqzYA7MstblHbtU89v/OXtnsVl2hlr8g4ZKt8maNPkxhww9dMv/mrpD0fOQiIhAgtu/wW3gmhwCImga1DFR1bxDYPfJ1lOh3/qvUZMfM9b54hL5KfS8IyKiGPCXyreVXPnvNSg+O/TXRKhNg9afYd1Z6wNA7/khH2SuFQ/X5MuZrvi9v6zhLej5RkREMbLnI4GIv4Cmb5cb9VzZEdrHADNFV3BLvpYHgGJzeA85Gmry40Xb5MccLgaCsQ3GGD3PiIgopoqe/Kh2o30Ajf65XBlm06D2ieqpWhX/rs9bq0Ir/vPkgF4kn462+Iu2ois+hp5XRESUAL5X/wbtin+I9HZ0iE2D1n5Btdbs9v8MFdrtf/3LyB/O9I/+ojFvQs8nIiJKmJIrZmhXbo+sQF0RTiOdgUtEW60OAHq2fDaU4v+96Jr8aE/2B7f80fOHiIgSbNAb+2HtiucjKVRB06B58oVQPgZoUqsiv/0/VbWHUvyHmvzIvkiuqSueGVwsT0TPGyIiSgH/Vuv12pVLIylYITUNWnta9B8DbDm3+o8tomzyoz3h+u6Jr0XPFyIiSpmhjwSiaE/7o+qbBm2/0Hom8tv/s8SKqor/PLlT3yIeiOBd/zbzn+ei5wcREaWY3yJscxBYEfoh4K9l1U2DTJEuRFX8OyfbPUNP66vmb4ygyY925VODi8eOQ88LIiLKAH/Zca/RnlwQ8rvYYml+de+wu0+xI3so0OZzrOoOKBE0+Rm65b/w2GPQ84GIiDKm1CLP2337OZyiVmXToL4LxIqoDgDFWXJ5xbf+Q27yY971bym54mz0+BMRUYb5nmWVXPl4aIeAKpoGBbfoCznVHXbx75ioNpiDia70b9K3mcNDWNfHFY/67th69LgTERHV+YvGHB3qRwLfEa0VfwwwTd0V9gFg01ninkr/nmJITX7Mu/6dwTX2lzUciR5vIiKivWhPnK5dsbH6z7Yrbxq07a+s5WEfAAYvtR6q6N3/deLhoHCHUPw3a886Ez2+REREw/KX2GNM0bq/6qIXNA2aJ0f94B09R+h8Tm0I7QDQpHr1XNk/6r/j67IjlCY/rnzId+UH0ONKREQ0Ir+18XBT/K6ttsVtpU2D1kxV94R1AFg/3bp/1MV/vjkwVNnkZ88t/4Xjj0CPJxER0ahot/5kcxBYX9U74AqaBm0513oorANA/0w56gNAqcomP6bwr9VL5OfQ40dERFQx/9dj31vyxD1VHQJG2TSoOEcOFBx7a7XFvz1nD+hmsXVUxf975m+t6pa/aPXvsN6NHjciIqKqVfuRQCVNgzo/Z91f7QFg3Rmj+/Kf/qZ8vtImP9qVpeAa+cvqDkOPFxERUahMkXO0K7oqKpCjbBq06Uuy6gNA/yVW2T//0/PFtkqb/Jjr0q3d+ono8SEiIoqM7x7/jpIr/6ui2+OjaBpUnC16TRHvr+Lb/7o4p7ynEgZNfkq3yMqa/Ljif/xFDe9CjwsREVHkfL/uEHMIuDK47T3qgjmKpkGdU1TFXwZcd5pV/qN/bxSjbvKjXaGHbvlfU3coejyIiIhqqthS32gKYecoC2fZTYM2nVX5zwH7LirvoKGDJj+e+ZtGd8u/UFwiP4W+/kRERDD+Uvk2UxT/MKp30GU2DSrOEhvyOaVHW/zzOXun+d/vGrH4Xy7XjrrJjyv+xV/W8Bb0dSciIoIb+kjAs+aP6p10mU2D2iepx0Z7AOg5xR7xDoOeJ0ujafIz9NpceWXwWtHXm4iIKFaKnvyoKZQvlX0IKKNp0Ibp1qibA/Web4348CH90/I/99euWF306j+Ovr5ERESx5S87/o0lTywr7131yE2DBmfJnrxj7xjNAaA4R+YPWvxH1+Tnd/6iMW9CX1ciIqJEKLniElPgB0Y8BJTRNKhjkr2i3OK/Zpp69qDFv8wmP+Zv7w8+1kBfRyIiosQZ9MZ+2BTSVSMW2xGaBq3/gnVnuQeArTPksB8rDDX5WSyeKeOW/7ODrjgJff2IiIgSy7/Ver125R0j3mq/fvimQf2XyPZyDwC62Rw4hjsA/GLkngbaE66/rOF16OtGRESUCiVXzBjxOfsHaRpUaFLPjlT8u6babcPe/v/+wZv8mEPK9uBjC/R1IiIiSh3fq28oeeLJYYvwQZoGrT1dtY747f/z1IFv/18pnjvY4cMU/6cGXfVB9PUhIiJKLX/Zca8xxXjhsMV4mKZB2y+Sq0a8/T9bPrX/5/5Bk5/hf5o4dMt/4bHHoK8LERFRJgx9JOCaQn+gwjxM06BCk/3ScMW/c4rVpefKnfs87Gdn6dYDN/kxhX9ryRPnoK8DERFR5vieZZli/MQBDwEHaBq09pThPwbY8qUDPPznJ/LAD/tx5XLfHVuPfv1ERESZ5S8ac7T25IID/BRvv6ZBfV+xnhr24T+zzEHi1cX/arHiQI8mDj5+8BfUH4V+3URERGToFvEFU5w37VWw92kaFNziL+RU577Fv2Oy2mD+Pb3n3wua/LSI7n2+6Le55FrT0a+TiIiI9uEvsceU3L0/s9c3ycde3TSo5+T9Hwq06Wzr7lcOCULrRft8rOCKh/2l4nj06yMiIqJh+AvHH6E9ccNez+p/VdOgbedbT+x7ABi8VDzySpOfVz73D/43go8X/GUNR6JfFxEREZVBe9Yp2t31zP6gaVDp8l1FXjfLHYWc6nm5+Lc32Vv2PEb4u/Khlw8O5r+7TreIqejXQURERKPk/3rse0vurif4vbpp0Jqp6u6XDwAbp6tdTw+8Qqwe+px/17v/O/3F4j3ov5+IiIgq5Lc2Hq49ce3QXYDdTYO2zpCPvHwAGJgpH3i5yc+uW/7iBn9Z3WHov5uIiIhCYA4AOVPc1+jr5V3FZlEs5NSmQs7qMweC3qDJj/nnPdqrn4T+O4mIiChk/h0feGfJk38KmgZ1TVX3bjjTeqB0g7y75In/9T11LPrvIyIioogEt/dLt4mrN81Qf+ybJ/6jtMi62r+m7lD030VEREQ1ULzyxE/3fdP+GPrvICIiIiIiIiIiIiIiIiIiIiIiIiIiIiIiIiIiIiIiIiIiIiIiIiIiIiIiIiIiIiIiIiIiIiIiIiIiIiIiIiIiIiIiIiIiIiIiIiIiIiIiIiIiIiIiIiIiIiIiIiIiIiIiIiIiIiIiIiIiIiIiIiIiIiIiIiIiIiIiIiIiIiIiIiIiIiIiIiIiIiIiIiIiIiIiIiIiIiIiIiIiIiIiIiIiIiIiIiIiIiIiosD/B2p05NNYaTCDAAAAAElFTkSuQmCC;labelPosition=center;align=center;fontSize=14;" vertex="1" parent="1">
          <mxGeometry x="790" y="263.95" width="92" height="92" as="geometry" />
        </mxCell>
        <mxCell id="iBH5Nsfj8ljK5VvBtSij-2" value="CODECONNECTION" style="text;html=1;align=center;verticalAlign=middle;resizable=0;points=[];autosize=1;strokeColor=none;fillColor=none;" vertex="1" parent="1">
          <mxGeometry x="860" y="263.95" width="140" height="30" as="geometry" />
        </mxCell>
      </root>
    </mxGraphModel>
  </diagram>
</mxfile>
